<svg width="146" height="146" viewBox="0 0 146 146" fill="none" xmlns="http://www.w3.org/2000/svg">
<path d="M26.9872 85.5656C22.5139 90.0389 20.0625 95.9616 20.0625 102.278C20.0625 108.594 22.5318 114.535 26.9872 118.99C31.4605 123.464 37.3832 125.915 43.6995 125.915C50.0158 125.915 55.9564 123.446 60.4118 118.99L71.0404 108.362L37.6158 74.937L26.9872 85.5656ZM102.282 20.0583C95.9658 20.0583 90.0252 22.5276 85.5698 26.983L74.9412 37.6117L108.366 71.0363L118.994 60.4077C123.45 55.9344 125.919 50.0117 125.919 43.6954C125.919 37.379 123.45 31.4385 118.994 26.983C114.521 22.5097 108.598 20.0583 102.282 20.0583Z" fill="black" fill-opacity="0.15"/>
<path d="M84.9616 79.1961C84.6925 78.9297 84.3292 78.7803 83.9506 78.7803C83.572 78.7803 83.2087 78.9297 82.9396 79.1961L71.0227 91.113L54.8651 74.9554L66.7999 63.0206C67.3546 62.4659 67.3546 61.5533 66.7999 60.9987L60.2867 54.4855C60.0177 54.2191 59.6544 54.0697 59.2758 54.0697C58.8972 54.0697 58.5338 54.2191 58.2648 54.4855L46.33 66.4203L38.6359 58.7262C38.5023 58.5925 38.3431 58.4872 38.1679 58.4165C37.9926 58.3457 37.8049 58.3111 37.616 58.3147C37.2581 58.3147 36.8823 58.4578 36.596 58.7262L18.3807 76.9595C11.7035 83.6192 7.93383 92.6511 7.89523 102.082C7.85944 109.149 9.89928 116.235 14.0326 122.319L0.415841 135.936C0.149442 136.205 0 136.568 0 136.947C0 137.325 0.149442 137.689 0.415841 137.958L8.00259 145.544C8.28888 145.831 8.64675 145.956 9.0225 145.956C9.39826 145.956 9.75613 145.813 10.0424 145.544L23.6592 131.928C29.6892 136.025 36.7034 138.065 43.7176 138.065C52.8789 138.065 62.0403 134.576 69.0365 127.58L87.2698 109.346C87.8245 108.792 87.8245 107.879 87.2698 107.324L79.5757 99.6302L91.5105 87.6954C92.0652 87.1407 92.0652 86.2282 91.5105 85.6735L84.9616 79.1961ZM60.412 118.991C58.222 121.192 55.6175 122.937 52.7489 124.126C49.8804 125.314 46.8047 125.923 43.6997 125.915C37.3833 125.915 31.4607 123.464 26.9874 118.991C22.5319 114.535 20.0627 108.595 20.0627 102.278C20.0627 95.9621 22.514 90.0394 26.9874 85.5661L37.616 74.9375L71.0406 108.362L60.412 118.991ZM145.584 7.99878L137.997 0.412034C137.711 0.125742 137.353 0.000488281 136.977 0.000488281C136.602 0.000488281 136.244 0.143635 135.957 0.412034L122.341 14.0288C116.421 10.0181 109.433 7.87974 102.282 7.89142C93.1209 7.89142 83.9595 11.3806 76.9633 18.3769L58.73 36.6101C58.4636 36.8792 58.3142 37.2425 58.3142 37.6211C58.3142 37.9997 58.4636 38.363 58.73 38.6321L107.346 87.2481C107.632 87.5344 107.99 87.6596 108.366 87.6596C108.724 87.6596 109.1 87.5165 109.386 87.2481L127.619 69.0148C139.948 56.6685 141.397 37.5764 131.967 23.6554L145.584 10.0386C146.139 9.46603 146.139 8.55347 145.584 7.99878ZM118.995 60.4082L108.366 71.0368L74.9413 37.6121L85.5699 26.9835C90.0254 22.5281 95.9659 20.0588 102.282 20.0588C108.599 20.0588 114.521 22.5102 118.995 26.9835C123.45 31.439 125.919 37.3795 125.919 43.6959C125.919 50.0122 123.45 55.9349 118.995 60.4082Z" fill="#C188C6" fill-opacity="0.21"/>
</svg>
