<svg width="157" height="138" viewBox="0 0 157 138" fill="none" xmlns="http://www.w3.org/2000/svg">
<path d="M147.188 88.3125L157 137.375H0L9.8125 88.3125H27.5977C24.9912 83.8151 23.0236 79.0877 21.6948 74.1304C20.366 69.173 19.6761 64.0879 19.625 58.875C19.625 53.4577 20.3149 48.2448 21.6948 43.2363C23.0747 38.2279 25.0679 33.5516 27.6743 29.2075C30.2808 24.8634 33.3472 20.8771 36.8735 17.2485C40.3999 13.62 44.3607 10.5535 48.7559 8.04932C53.151 5.54508 57.8529 3.57747 62.8613 2.14648C67.8698 0.715495 73.0827 0 78.5 0C83.9173 0 89.1302 0.689941 94.1387 2.06982C99.1471 3.44971 103.823 5.44287 108.167 8.04932C112.512 10.6558 116.498 13.7222 120.126 17.2485C123.755 20.7749 126.821 24.7357 129.326 29.1309C131.83 33.526 133.798 38.2279 135.229 43.2363C136.66 48.2448 137.375 53.4577 137.375 58.875C137.375 64.0879 136.711 69.173 135.382 74.1304C134.053 79.0877 132.06 83.8151 129.402 88.3125H147.188ZM127.562 58.875C127.562 57.2396 127.486 55.6042 127.333 53.9688C127.179 52.3333 126.924 50.6979 126.566 49.0625H107.478C107.784 52.3844 107.938 55.6553 107.938 58.875C107.938 62.1458 107.784 65.4167 107.478 68.6875H126.566C126.873 67.0521 127.103 65.4167 127.256 63.7812C127.409 62.1458 127.511 60.5104 127.562 58.875ZM59.335 68.6875H97.665C97.9717 65.4167 98.125 62.1458 98.125 58.875C98.125 55.6553 97.9717 52.3844 97.665 49.0625H59.335C59.0283 52.3844 58.875 55.6553 58.875 58.875C58.875 62.1458 59.0283 65.4167 59.335 68.6875ZM96.2852 78.5H60.7148C60.9193 79.6755 61.277 81.2087 61.7881 83.0996C62.2992 84.9906 62.938 87.0604 63.7046 89.3091C64.4712 91.5578 65.3656 93.7554 66.3877 95.9019C67.4098 98.0483 68.5342 100.042 69.7607 101.881C70.9873 103.721 72.3416 105.178 73.8237 106.251C75.3058 107.324 76.8646 107.886 78.5 107.938C80.1354 107.938 81.6686 107.375 83.0996 106.251C84.5306 105.127 85.8849 103.67 87.1626 101.881C88.4403 100.093 89.5646 98.0994 90.5356 95.9019C91.5067 93.7043 92.401 91.5067 93.2188 89.3091C94.0365 87.1115 94.6753 85.0672 95.1353 83.1763C95.5952 81.2853 95.9785 79.7266 96.2852 78.5ZM59.7183 104.181C57.3674 100.297 55.4764 96.1574 54.0454 91.7622C52.6144 87.367 51.5156 82.9463 50.749 78.5H33.5771C34.8037 81.2087 36.3369 83.8407 38.1768 86.396C40.0166 88.9513 42.0609 91.3789 44.3096 93.6787C46.5583 95.9785 49.0114 97.9972 51.6689 99.7349C54.3265 101.472 57.0096 102.955 59.7183 104.181ZM106.251 78.5C105.433 82.8952 104.334 87.2904 102.955 91.6855C101.575 96.0807 99.7093 100.246 97.3584 104.181C100.118 102.955 102.776 101.447 105.331 99.6582C107.886 97.8695 110.314 95.8763 112.614 93.6787C114.914 91.4811 116.983 89.0791 118.823 86.4727C120.663 83.8662 122.196 81.2087 123.423 78.5H106.251ZM123.423 39.25C120.816 33.4749 117.29 28.3643 112.844 23.918C108.397 19.4717 103.21 16.022 97.2817 13.5688C99.6327 17.453 101.498 21.5926 102.878 25.9878C104.258 30.383 105.382 34.8037 106.251 39.25H123.423ZM78.5 9.8125C76.8646 9.8125 75.3314 10.3747 73.9004 11.499C72.4694 12.6234 71.1151 14.0799 69.8374 15.8687C68.5597 17.6574 67.4354 19.6506 66.4644 21.8481C65.4933 24.0457 64.599 26.2433 63.7812 28.4409C62.9635 30.6385 62.2992 32.6828 61.7881 34.5737C61.277 36.4647 60.9193 38.0234 60.7148 39.25H96.2852C96.0296 38.0745 95.6719 36.5413 95.2119 34.6504C94.752 32.7594 94.1131 30.6896 93.2954 28.4409C92.4777 26.1922 91.5833 23.9946 90.6123 21.8481C89.6413 19.7017 88.5169 17.7085 87.2393 15.8687C85.9616 14.0288 84.6073 12.5723 83.1763 11.499C81.7453 10.4258 80.1865 9.86361 78.5 9.8125ZM59.7183 13.5688C53.841 16.022 48.6792 19.4717 44.2329 23.918C39.7866 28.3643 36.2347 33.4749 33.5771 39.25H50.749C51.5667 34.8037 52.6655 30.383 54.0454 25.9878C55.4253 21.5926 57.3162 17.453 59.7183 13.5688ZM30.4341 49.0625C30.1274 50.6979 29.8975 52.3333 29.7441 53.9688C29.5908 55.6042 29.4886 57.2396 29.4375 58.875C29.4375 60.5104 29.5142 62.1458 29.6675 63.7812C29.8208 65.4167 30.0763 67.0521 30.4341 68.6875H49.5225C49.2158 65.4167 49.0625 62.1458 49.0625 58.875C49.0625 55.6553 49.2158 52.3844 49.5225 49.0625H30.4341ZM11.959 127.562H145.041L139.138 98.125H122.273C119.513 101.243 116.472 104.002 113.15 106.404C109.828 108.806 106.277 110.876 102.495 112.614C98.7127 114.351 94.8286 115.629 90.8423 116.447C86.856 117.264 82.7419 117.699 78.5 117.75C74.3092 117.75 70.1952 117.316 66.1577 116.447C62.1203 115.578 58.2362 114.3 54.5054 112.614C50.7746 110.927 47.2482 108.883 43.9263 106.481C40.6043 104.079 37.5379 101.294 34.7271 98.125H17.8618L11.959 127.562Z" fill="#C188C6" fill-opacity="0.21"/>
</svg>
