<svg width="163" height="163" viewBox="0 0 163 163" fill="none" xmlns="http://www.w3.org/2000/svg">
<path d="M132.438 10.1875H152.812V30.5625H132.438V10.1875ZM132.438 40.75H152.812V61.125H132.438V40.75ZM101.875 10.1875H122.25V30.5625H101.875V10.1875ZM101.875 40.75H122.25V61.125H101.875V40.75Z" fill="#C188C6" fill-opacity="0.21"/>
<path d="M142.625 81.5V112.062H20.375V30.5625H81.5V20.375H20.375C17.6731 20.375 15.0819 21.4483 13.1713 23.3588C11.2608 25.2694 10.1875 27.8606 10.1875 30.5625V112.062C10.1875 114.764 11.2608 117.356 13.1713 119.266C15.0819 121.177 17.6731 122.25 20.375 122.25H61.125V142.625H40.75V152.812H122.25V142.625H101.875V122.25H142.625C145.327 122.25 147.918 121.177 149.829 119.266C151.739 117.356 152.812 114.764 152.812 112.062V81.5H142.625ZM91.6875 142.625H71.3125V122.25H91.6875V142.625Z" fill="#C188C6" fill-opacity="0.21"/>
</svg>
