<svg width="200" height="200" viewBox="0 0 200 200" fill="none" xmlns="http://www.w3.org/2000/svg">
<g clip-path="url(#clip0_1264_22)">
<path d="M153.125 0H46.875C20.9867 0 0 20.9867 0 46.875V153.125C0 179.013 20.9867 200 46.875 200H153.125C179.013 200 200 179.013 200 153.125V46.875C200 20.9867 179.013 0 153.125 0Z" fill="#F4F2ED"/>
<path fill-rule="evenodd" clip-rule="evenodd" d="M159.234 53.7773L109.905 24.496C107.028 22.7805 103.74 21.8748 100.389 21.8748C97.0392 21.8748 93.7512 22.7805 90.8734 24.496L41.5453 53.7773C35.6578 57.2734 32.0312 63.7304 32.0312 70.7203V129.284C32.0312 136.272 35.6586 142.733 41.5469 146.228L90.875 175.504C93.7528 177.218 97.0401 178.123 100.39 178.124C103.739 178.123 107.026 177.218 109.904 175.504L159.232 146.228C165.12 142.733 168.749 136.272 168.749 129.284V70.721C168.749 63.7304 165.12 57.2726 159.234 53.7773Z" fill="#FEFEFE"/>
<path fill-rule="evenodd" clip-rule="evenodd" d="M92.5992 172.506L43.2711 143.23C38.4461 140.366 35.4484 135.022 35.4484 129.283V70.7211C35.4484 64.982 38.4461 59.6383 43.2687 56.7758L92.5992 27.4945C94.9563 26.0927 97.6474 25.3514 100.39 25.3484C103.12 25.3484 105.814 26.0906 108.181 27.4945L157.509 56.7758C161.575 59.1891 164.317 63.368 165.088 68.0547C163.452 64.5633 159.763 63.6141 155.463 66.125L108.796 94.9508C102.977 98.3523 98.6867 102.17 98.6828 109.186V166.689C98.6797 170.891 100.377 173.612 102.983 174.401C102.127 174.549 101.263 174.652 100.39 174.652C97.6474 174.649 94.9563 173.908 92.5992 172.506ZM159.234 53.7766L109.905 24.4969C107.027 22.7825 103.74 21.8767 100.39 21.875C97.0396 21.8766 93.7518 22.7824 90.8734 24.4969L41.5453 53.7766C35.6578 57.2719 32.0312 63.7313 32.0312 70.7219V129.283C32.0312 136.271 35.6586 142.732 41.5469 146.227L90.875 175.505C93.7533 177.218 97.0403 178.123 100.39 178.125C103.739 178.123 107.026 177.218 109.904 175.505L159.234 146.227C165.121 142.732 168.749 136.271 168.749 129.283V70.7211C168.749 63.7313 165.121 57.2719 159.234 53.7766Z" fill="#3E474A"/>
<path fill-rule="evenodd" clip-rule="evenodd" d="M146.302 134.945L134.02 142.296C133.694 142.486 133.455 142.699 133.452 143.091V146.305C133.452 146.698 133.716 146.861 134.041 146.67L146.515 139.089C146.84 138.899 146.89 138.536 146.892 138.145V135.309C146.892 134.919 146.628 134.755 146.302 134.945Z" fill="#47B353"/>
<path fill-rule="evenodd" clip-rule="evenodd" d="M120.147 107.889C120.545 107.687 120.872 107.935 120.877 108.455L120.919 112.705C122.698 111.997 124.243 111.808 125.643 112.131C125.947 112.212 126.081 112.626 125.957 113.116L125.022 116.882C124.949 117.166 124.789 117.454 124.596 117.633C124.524 117.706 124.441 117.768 124.35 117.816C124.238 117.878 124.107 117.899 123.981 117.876C123.342 117.731 121.823 117.399 119.432 118.61C116.924 119.88 116.047 122.059 116.064 123.676C116.085 125.607 117.076 126.192 120.496 126.251C125.054 126.327 127.023 128.318 127.071 132.909C127.118 137.416 124.712 142.257 121.031 145.223L121.112 149.43C121.116 149.936 120.788 150.516 120.39 150.718L117.898 152.153C117.499 152.355 117.172 152.106 117.166 151.6L117.123 147.462C114.99 148.349 112.827 148.563 111.446 148.009C111.186 147.907 111.074 147.523 111.177 147.085L112.08 143.282C112.152 142.982 112.311 142.682 112.527 142.491C112.602 142.417 112.681 142.36 112.76 142.32C112.903 142.248 113.043 142.233 113.162 142.277C114.65 142.779 116.554 142.545 118.384 141.618C120.71 140.441 122.266 138.07 122.241 135.713C122.219 133.575 121.062 132.687 118.247 132.666C114.664 132.676 111.324 131.97 111.269 126.695C111.224 122.353 113.482 117.834 117.056 114.977L117.012 110.731C117.006 110.209 117.325 109.635 117.735 109.429L120.147 107.889Z" fill="#FEFEFE"/>
</g>
<defs>
<clipPath id="clip0_1264_22">
<rect width="200" height="200" fill="white"/>
</clipPath>
</defs>
</svg>
