<svg width="156" height="156" viewBox="0 0 156 156" fill="none" xmlns="http://www.w3.org/2000/svg">
<path d="M28.7725 132.605L17.8232 9.75H138.177L127.213 132.585L77.9271 146.25L28.7725 132.605Z" fill="#1572B6"/>
<path d="M78 135.808L117.829 124.766L127.198 19.7974H78V135.808Z" fill="#33A9DC"/>
<path d="M78 64.3061H97.9388L99.3135 48.8767H78V33.8081H115.781L115.421 37.8495L111.72 79.3748H78V64.3061Z" fill="white"/>
<path d="M78.0925 103.438L78.0243 103.457L61.2445 98.9235L60.172 86.9066H45.0449L47.1558 110.565L78.0194 119.135L78.0925 119.116V103.438Z" fill="#EBEBEB"/>
<path d="M96.6567 78.7361L94.8432 98.9137L78.0391 103.447V119.125L108.927 110.565L109.156 108.02L111.774 78.7361H96.6567Z" fill="white"/>
<path d="M78.0538 33.8081V48.8767H41.657L41.3548 45.4886L40.6674 37.8495L40.3066 33.8081H78.0538ZM78.0001 64.3061V79.3748H61.43L61.1278 75.9866L60.4453 68.3475L60.0845 64.3061H78.0001Z" fill="#EBEBEB"/>
</svg>
