<svg width="200" height="200" viewBox="0 0 200 200" fill="none" xmlns="http://www.w3.org/2000/svg">
<g clip-path="url(#clip0_1264_118)">
<path d="M153.125 0H46.875C20.9867 0 0 20.9867 0 46.875V153.125C0 179.013 20.9867 200 46.875 200H153.125C179.013 200 200 179.013 200 153.125V46.875C200 20.9867 179.013 0 153.125 0Z" fill="#242938"/>
<path d="M178.125 142.919C175.851 143.781 173.34 143.779 171.066 142.915C168.793 142.05 166.916 140.383 165.788 138.228C158.708 127.629 150.889 117.508 143.374 107.169L140.116 102.826C131.167 114.815 122.219 126.326 114.052 138.272C112.989 140.331 111.213 141.934 109.055 142.781C106.897 143.628 104.505 143.662 102.324 142.877L135.902 97.8304L104.67 57.1273C106.918 56.3154 109.377 56.3042 111.633 57.0956C113.888 57.887 115.802 59.4324 117.05 61.471C124.304 72.071 132.341 82.1921 140.333 92.9218C148.37 82.2789 156.319 72.114 163.747 61.6015C164.816 59.5754 166.594 58.0132 168.74 57.2122C170.887 56.4113 173.253 56.4275 175.388 57.2578L163.269 73.3304C157.839 80.4976 152.496 87.7086 146.849 94.7023C146.394 95.1096 146.03 95.6084 145.78 96.166C145.531 96.7237 145.402 97.3277 145.402 97.9386C145.402 98.5495 145.531 99.1535 145.78 99.7112C146.03 100.269 146.394 100.768 146.849 101.175C157.231 114.945 167.526 128.759 178.125 142.919ZM21.875 97.2656C22.7875 92.9218 23.3516 88.1867 24.6117 83.7562C32.1266 57.0414 62.7508 45.9203 83.8188 62.471C96.1555 72.1585 99.2398 85.8851 98.632 101.349H29.1297C28 128.977 47.9383 145.657 73.4367 137.143C77.5729 135.663 81.2756 133.177 84.2105 129.908C87.1455 126.639 89.2202 122.691 90.2477 118.42C91.5945 114.077 93.7664 113.338 97.893 114.598C97.2135 119.886 95.3438 124.951 92.4246 129.413C89.5055 133.875 85.6127 137.617 81.0391 140.357C73.4825 144.49 64.8127 146.127 56.2695 145.035C47.7262 143.942 39.7472 140.177 33.4734 134.276C27.2666 127.297 23.5137 118.479 22.7875 109.168C22.7875 107.691 22.2227 106.214 21.9187 104.824C21.89 102.305 21.8754 99.7852 21.875 97.2656ZM29.2164 95.3976H92.0727C91.6812 75.3726 79.0406 61.1679 62.1867 61.0382C43.4211 60.7773 29.9984 74.6773 29.1727 95.3109L29.2164 95.3976Z" fill="white"/>
</g>
<defs>
<clipPath id="clip0_1264_118">
<rect width="200" height="200" fill="white"/>
</clipPath>
</defs>
</svg>
