<svg width="156" height="156" viewBox="0 0 156 156" fill="none" xmlns="http://www.w3.org/2000/svg">
<path d="M28.7725 132.605L17.8184 9.75H138.182L127.213 132.585L77.9271 146.25L28.7725 132.605Z" fill="#E44F26"/>
<path d="M78 135.808L117.829 124.766L127.198 19.7974H78V135.808Z" fill="#F1662A"/>
<path d="M78 65.3591H58.0612L56.6865 49.9297H78V34.8611H40.2188L40.5795 38.9074L44.2796 80.4277H78V65.3591ZM78 104.491L77.9318 104.51L61.152 99.9814L60.0795 87.9645H44.9524L47.0633 111.618L77.9318 120.188L78 120.169V104.491Z" fill="#EBEBEB"/>
<path d="M77.9463 65.3591V80.4277H96.5005L94.7553 99.9716L77.9463 104.505V120.183L108.839 111.618L109.063 109.073L112.603 69.4054L112.973 65.3591H77.9463ZM77.9463 34.8611V49.9297H114.343L114.645 46.5465L115.333 38.9074L115.693 34.8611H77.9463Z" fill="white"/>
</svg>
