<svg width="200" height="137" viewBox="0 0 200 137" fill="none" xmlns="http://www.w3.org/2000/svg">
<g clip-path="url(#clip0_1264_44)">
<path d="M59.4961 89.9597L65.5742 109.681C66.9398 114.159 67.5094 117.285 67.2813 119.066C70.6055 110.163 72.9283 100.461 74.2496 89.9597H81.5582C78.4152 107.056 74.2711 119.479 69.1258 127.229C65.1172 133.202 60.7258 136.187 55.9438 136.187C54.6688 136.187 53.0969 135.802 51.2316 135.037V130.916C52.143 131.05 53.2121 131.121 54.4418 131.121C56.6723 131.121 58.4712 130.503 59.8387 129.269C61.4766 127.766 62.2965 126.076 62.2965 124.203C62.2965 122.924 61.657 120.299 60.384 116.329L51.9152 89.9597H59.4961ZM12.9777 77.8383L24.1105 111.805H24.1793L35.3805 77.8383H44.532C46.5359 94.6836 47.7195 110.096 48.0828 124.067H40.3672C40.0953 111.008 39.3443 98.7265 38.1141 87.2234H38.0469L26.2977 124.067H20.4219L8.74375 87.2234H8.675C7.80912 98.2708 7.26276 110.552 7.03594 124.067H0C0.454688 107.63 1.59258 92.2215 3.41367 77.8383H12.9777Z" fill="#00758F"/>
<path d="M137.695 77.1524C149.67 77.1524 155.658 84.8031 155.658 100.097C155.658 108.408 153.857 114.686 150.259 118.927C149.611 119.702 148.894 120.372 148.139 120.992L156.614 125.182L156.605 125.182L153.596 130.378L142.56 123.938C140.73 124.48 138.719 124.751 136.525 124.751C130.645 124.751 126.252 123.037 123.348 119.614C120.161 115.827 118.568 109.866 118.568 101.74C118.568 93.4762 120.366 87.2223 123.965 82.9758C127.243 79.0914 131.82 77.1524 137.695 77.1524ZM101.023 77.2192C105.303 77.2192 109.195 78.3645 112.7 80.6469L110.92 84.6145C107.92 83.3395 104.963 82.6992 102.046 82.6992C99.6797 82.6992 97.8563 83.2688 96.5852 84.4149C95.307 85.5508 94.5164 87.0125 94.5164 88.7946C94.5164 91.5328 96.4672 93.9074 100.069 95.9137C101.249 96.5587 102.425 97.2112 103.597 97.8711L103.866 98.0223L104 98.0981L104.27 98.2492L104.404 98.325L104.673 98.4766C107.399 100.014 109.965 101.481 109.965 101.481C113.566 104.038 115.362 106.763 115.362 111.253C115.362 115.173 113.925 118.392 111.061 120.91C108.195 123.417 104.345 124.674 99.5227 124.674C95.0129 124.674 90.6422 123.227 86.4086 120.358L88.3891 116.387C92.0324 118.213 95.3293 119.125 98.2898 119.125C101.066 119.125 103.24 118.505 104.812 117.281C106.381 116.048 107.321 114.328 107.321 112.147C107.321 109.402 105.412 107.055 101.909 105.087C100.813 104.481 99.7199 103.87 98.6301 103.252L98.3617 103.1C97.8688 102.822 97.3723 102.54 96.8859 102.264L96.6223 102.114C94.257 100.768 92.2121 99.593 92.2121 99.593C88.7106 97.0317 86.9547 94.2836 86.9547 89.7555C86.9547 86.0106 88.2641 82.9836 90.8789 80.6809C93.5003 78.3731 96.8815 77.2192 101.023 77.2192ZM169.732 77.8379V118.38H184.278V124.067H162.354V77.8383L169.732 77.8379ZM192.361 118.398V119.359H190.761V124.062H189.539V119.359H187.877V118.398H192.361ZM195.314 118.398L196.849 122.259L198.26 118.398H199.993V124.062H198.841V119.751L197.235 124.062H196.404L194.796 119.751H194.734V124.062H193.644V118.398H195.314ZM136.941 82.8375C129.884 82.8375 126.354 88.6617 126.354 100.302C126.354 106.97 127.289 111.805 129.157 114.819C130.887 117.608 133.596 119 137.284 119C144.341 119 147.871 113.13 147.871 101.397C147.871 94.8223 146.936 90.0285 145.071 87.0133C143.339 84.2305 140.631 82.8375 136.942 82.8375" fill="#F29111"/>
<path d="M118.445 2.86448C120.786 -2.88786 128.971 1.46839 132.148 3.47776C132.926 3.9805 133.819 5.0426 134.712 5.43518C136.104 5.48987 137.496 5.59886 138.891 5.65706C141.507 6.2719 143.958 6.77425 146.02 7.94846C155.601 13.591 161.838 19.341 167.578 28.8387C168.805 30.8504 169.418 33.0274 170.42 35.2043C171.81 38.4492 173.373 41.8555 174.987 44.9239C175.709 46.3785 176.268 47.9961 177.272 49.2246C177.664 49.7864 178.777 49.952 179.442 50.2875C181.281 51.2395 183.509 51.9621 185.239 53.0793C188.469 55.0934 191.592 57.4934 194.431 59.9504C195.489 60.8989 196.21 62.2414 197.218 63.2446V63.7508C196.323 64.0254 195.432 64.3067 194.539 64.5321C192.589 65.0328 190.862 64.9196 188.971 65.4207C187.802 65.7598 186.351 66.2071 185.125 66.3207L185.239 66.4348C185.96 68.4953 189.861 70.1711 191.646 71.4035C193.813 72.9676 195.821 74.8645 197.438 77.043C197.996 77.5989 198.554 78.1047 199.109 78.659C199.498 79.2207 199.607 79.9473 200 80.4481V80.6176C199.565 80.4641 199.252 80.1711 198.955 79.8649L198.779 79.6801C198.602 79.4965 198.423 79.316 198.22 79.1672C196.99 78.3274 195.769 77.3227 194.539 76.5418C192.425 75.2004 189.973 74.4219 187.802 73.0754C186.575 72.2938 185.405 71.4035 184.235 70.509C183.175 69.725 182.007 68.2196 181.34 67.1024C180.948 66.4852 180.894 65.7598 180.445 65.3133C180.525 64.5676 181.209 64.3461 181.898 64.1641L182.057 64.1223C182.295 64.0606 182.527 63.9989 182.73 63.9172C185.627 62.6875 189.079 62.2414 193.538 62.3532C193.37 61.2336 190.584 59.8387 189.695 59.1684C187.909 57.8817 186.019 56.5391 184.125 55.368C183.122 54.7547 181.393 54.3071 180.281 53.8059C178.777 53.191 175.433 52.5766 174.6 51.4055C173.184 49.5594 172.166 47.3574 171.179 45.1332L170.91 44.5262L170.641 43.9196C169.473 41.241 168.023 38.4485 166.854 35.7059C166.242 34.368 165.961 33.1938 165.291 31.9106C161.226 24.0364 155.209 17.4438 147.914 12.8074C145.517 11.2989 142.844 9.90276 139.893 8.95393C138.221 8.44886 136.214 8.72815 134.432 8.34065H133.259C132.259 8.05862 131.423 6.99768 130.642 6.43831C128.918 5.26721 127.19 4.48089 125.128 3.64534C124.405 3.31018 122.341 2.52971 121.621 3.14417C121.175 3.25628 120.949 3.42464 120.839 3.87229C120.395 4.54026 120.786 5.54651 121.062 6.16253C121.898 7.94768 123.067 9.00862 124.128 10.5172C125.072 11.8551 126.244 13.3637 126.913 14.8184C128.357 17.9453 129.029 21.4098 130.367 24.5364C130.863 25.7121 131.648 27.05 132.37 28.1106C132.982 28.9524 134.095 29.561 134.432 30.6266C135.103 31.7438 133.427 35.4301 133.039 36.6008C131.588 41.1817 131.87 47.5493 133.541 51.52L133.63 51.7293L133.719 51.9414C134.329 53.3957 134.982 54.9617 136.604 55.3684C136.716 55.2575 136.604 55.3157 136.826 55.2575C137.218 52.184 137.329 49.2242 138.388 46.8196C139 45.316 140.223 44.2532 141.061 43.0258C141.619 43.3602 141.619 44.3684 141.952 45.0356C142.677 46.766 143.455 48.6633 144.349 50.3989C146.184 53.9731 148.248 57.4383 150.586 60.5649C151.37 61.6817 152.481 62.911 153.483 63.9168C153.93 64.3063 154.43 64.5313 154.765 65.0325H154.875V65.2012C153.204 64.5852 152.144 62.8563 150.811 61.8469C148.302 59.9496 145.297 57.1004 143.567 54.3664C142.844 52.7969 142.062 51.2926 141.282 49.7309V49.618C140.949 50.0641 141.061 50.5071 140.894 51.1821C140.17 53.9731 140.727 57.1571 138.221 58.161C135.379 59.3367 133.26 56.2637 132.37 54.8672C129.528 50.2321 128.75 42.4125 130.754 36.1004C131.199 34.7032 131.26 33.0274 132.037 31.9117C131.869 30.9032 131.092 30.6274 130.642 30.0094C129.862 28.9532 129.195 27.7227 128.584 26.5496C127.412 24.2582 126.577 21.5203 125.687 19.0629C125.296 18.0594 125.184 17.052 124.793 16.102C124.128 14.652 122.901 13.1973 121.954 11.9145C120.673 10.0707 116.94 6.49729 118.445 2.86448ZM136.715 13.8078C136.864 13.9571 137.043 14.0875 137.229 14.216L137.454 14.3699C137.752 14.577 138.042 14.7949 138.219 15.0918C138.5 15.4848 138.553 15.8727 138.889 16.2664C138.889 17.609 138.5 18.5016 137.715 19.0578C137.715 19.0578 137.661 19.1164 137.606 19.1711C137.161 18.2762 136.771 17.386 136.322 16.4918C135.77 15.7114 134.989 15.0922 134.539 14.2004H134.431V14.0883C135.103 13.9223 135.77 13.8078 136.715 13.8078Z" fill="#00758F"/>
</g>
<defs>
<clipPath id="clip0_1264_44">
<rect width="200" height="136.328" fill="white"/>
</clipPath>
</defs>
</svg>
