<svg width="200" height="200" viewBox="0 0 200 200" fill="none" xmlns="http://www.w3.org/2000/svg">
<g clip-path="url(#clip0_1264_79)">
<path d="M153.125 0H46.875C20.9867 0 0 20.9867 0 46.875V153.125C0 179.013 20.9867 200 46.875 200H153.125C179.013 200 200 179.013 200 153.125V46.875C200 20.9867 179.013 0 153.125 0Z" fill="#242938"/>
<path d="M158.969 116.162C143.094 119.436 141.941 114.059 141.941 114.059C158.711 89.1742 165.726 57.5883 159.672 49.8593C143.171 28.7656 114.601 38.7468 114.123 39.0054L113.969 39.0328C110.479 38.3324 106.932 37.9625 103.373 37.9281C96.1875 37.8187 90.7383 39.8125 86.5969 42.9492C86.5969 42.9492 35.6313 21.9547 38.0039 69.3554C38.5094 79.4406 52.4516 145.71 69.0953 125.66C75.2258 118.288 81.1031 112.097 81.1031 112.097C84.0149 114.036 87.5141 115.025 91.1782 114.668L91.4633 114.427C91.3798 115.376 91.4187 116.332 91.5789 117.272C87.2946 122.062 88.5578 122.902 79.9883 124.666C71.3203 126.451 76.418 129.631 79.736 130.466C83.768 131.477 93.0953 132.905 99.4016 124.084L99.1485 125.088C100.83 126.434 102.005 133.839 101.807 140.552C101.609 147.265 101.477 151.868 102.796 155.471C104.114 159.075 105.433 167.172 116.694 164.809C126.104 162.794 130.976 157.559 131.663 148.847C132.146 142.65 133.234 143.562 133.311 138.025L134.19 135.399C135.195 126.995 134.354 124.287 140.149 125.55L141.561 125.677C145.83 125.869 151.416 124.99 154.69 123.468C161.748 120.195 165.934 114.723 158.974 116.162H158.969Z" fill="#336791"/>
<path d="M114.117 37.9656C112.359 38.5149 142.484 26.9524 159.612 48.8313C165.655 56.5602 158.651 88.1461 141.88 113.03M100.077 120.144C99.6375 135.777 100.187 151.52 101.714 155.3C103.241 159.079 106.52 166.561 117.787 164.155C127.197 162.139 130.624 158.233 132.108 149.614L135.584 122.055L100.077 120.144ZM86.575 41.7727C86.575 41.7727 35.5758 20.9211 37.9492 68.3203C38.4547 78.4055 52.3961 144.675 69.0406 124.625C75.1156 117.302 80.6094 111.573 80.6094 111.573L86.575 41.7727Z" stroke="white" stroke-width="5.034" stroke-linecap="round" stroke-linejoin="round"/>
<path d="M141.885 113.019C141.885 113.019 142.984 118.402 158.914 115.117C165.874 113.678 161.683 119.149 154.63 122.423C148.84 125.115 135.854 125.801 135.64 122.094C135.091 112.508 142.473 115.419 141.941 113.019C141.457 110.855 138.15 108.734 135.975 103.439C134.069 98.8241 109.827 63.3936 142.698 68.6499C143.907 68.403 134.129 37.3397 103.367 36.889C72.6055 36.4382 73.5781 74.7093 73.5781 74.7093" stroke="white" stroke-width="5.034" stroke-linecap="round" stroke-linejoin="bevel"/>
<path d="M91.4688 116.304C87.1844 121.094 88.4477 121.934 79.8789 123.698C71.2102 125.483 76.3086 128.663 79.6258 129.498C83.6578 130.509 92.9852 131.938 99.2914 123.109C101.214 120.418 99.2805 116.134 96.6438 115.046C95.3695 114.519 93.6664 113.859 91.4805 116.309L91.4688 116.304Z" stroke="white" stroke-width="5.034" stroke-linejoin="round"/>
<path d="M91.189 116.221C90.7492 113.403 92.1117 110.058 93.5672 106.136C95.7539 100.259 100.797 94.3805 96.7648 75.7203C93.7601 61.8219 73.5836 72.825 73.5836 74.7094C73.5836 76.5938 74.4953 84.268 73.2539 93.1938C71.6226 104.851 80.6695 114.705 91.0844 113.7" stroke="white" stroke-width="5.034" stroke-linecap="round" stroke-linejoin="round"/>
<path d="M86.3883 74.4298C86.2945 75.072 87.5687 76.7915 89.2227 77.022C90.8758 77.2532 92.2875 75.9126 92.3812 75.2642C92.4742 74.6157 91.2 73.9126 89.5469 73.6821C87.893 73.4517 86.4703 73.7923 86.3883 74.4298Z" fill="white" stroke="white" stroke-width="1.68"/>
<path d="M136.727 73.1173C136.815 73.7595 135.546 75.4782 133.893 75.7095C132.239 75.94 130.816 74.6001 130.734 73.9517C130.652 73.3032 131.916 72.6001 133.569 72.3696C135.222 72.1392 136.645 72.4798 136.727 73.1173Z" fill="white" stroke="white" stroke-width="0.837"/>
<path d="M142.638 68.6616C142.913 73.7155 141.55 77.1483 141.374 82.5265C141.122 90.3374 145.099 99.2804 139.105 108.234" stroke="white" stroke-width="5.034" stroke-linecap="round" stroke-linejoin="round"/>
</g>
<defs>
<clipPath id="clip0_1264_79">
<rect width="200" height="200" fill="white"/>
</clipPath>
</defs>
</svg>
