<svg width="256" height="256" viewBox="0 0 256 256" fill="none" xmlns="http://www.w3.org/2000/svg">
<g clip-path="url(#clip0_241_2)">
<path d="M196 0H60C26.8629 0 0 26.8629 0 60V196C0 229.137 26.8629 256 60 256H196C229.137 256 256 229.137 256 196V60C256 26.8629 229.137 0 196 0Z" fill="#E43717"/>
<mask id="mask0_241_2" style="mask-type:luminance" maskUnits="userSpaceOnUse" x="38" y="38" width="180" height="180">
<path d="M38 38H218V217.5H38V38Z" fill="white"/>
</mask>
<g mask="url(#mask0_241_2)">
<path fill-rule="evenodd" clip-rule="evenodd" d="M177.454 156.477L74.6851 217.5L207.751 208.471L218 74.294L177.454 156.477Z" fill="url(#paint0_linear_241_2)"/>
<path fill-rule="evenodd" clip-rule="evenodd" d="M207.969 208.379L196.532 129.44L165.379 170.577L207.969 208.379Z" fill="url(#paint1_linear_241_2)"/>
<path fill-rule="evenodd" clip-rule="evenodd" d="M208.124 208.379L124.334 201.802L75.1299 217.329L208.124 208.379Z" fill="url(#paint2_linear_241_2)"/>
<path fill-rule="evenodd" clip-rule="evenodd" d="M75.2481 217.346L96.1801 148.773L50.1201 158.622L75.2481 217.346Z" fill="url(#paint3_linear_241_2)"/>
<path fill-rule="evenodd" clip-rule="evenodd" d="M165.371 170.804L146.111 95.362L90.9919 147.028L165.371 170.804Z" fill="url(#paint4_linear_241_2)"/>
<path fill-rule="evenodd" clip-rule="evenodd" d="M213.63 96.425L161.528 53.871L147.019 100.777L213.63 96.425Z" fill="url(#paint5_linear_241_2)"/>
<path fill-rule="evenodd" clip-rule="evenodd" d="M189.264 38.7L158.621 55.634L139.288 38.472L189.264 38.7Z" fill="url(#paint6_linear_241_2)"/>
<path fill-rule="evenodd" clip-rule="evenodd" d="M38 181.624L50.837 158.212L40.453 130.321L38 181.624Z" fill="url(#paint7_linear_241_2)"/>
<path fill-rule="evenodd" clip-rule="evenodd" d="M39.7629 129.44L50.2099 159.075L95.6079 148.89L147.437 100.722L162.064 54.262L139.033 38L99.8769 52.654C87.5399 64.128 63.5999 86.832 62.7379 87.259C61.8839 87.695 46.9309 115.958 39.7629 129.44Z" fill="white"/>
<path fill-rule="evenodd" clip-rule="evenodd" d="M76.448 76.202C103.184 49.692 137.653 34.03 150.88 47.376C164.1 60.722 150.081 93.155 123.344 119.655C96.607 146.156 62.566 162.682 49.347 149.336C36.119 135.999 49.712 102.703 76.448 76.202Z" fill="url(#paint8_linear_241_2)"/>
<path fill-rule="evenodd" clip-rule="evenodd" d="M75.248 217.319L96.016 148.527L164.989 170.686C140.051 194.07 112.314 213.839 75.248 217.319Z" fill="url(#paint9_linear_241_2)"/>
<path fill-rule="evenodd" clip-rule="evenodd" d="M147.528 100.586L165.235 170.722C186.066 148.818 204.763 125.27 213.92 96.144L147.528 100.586Z" fill="url(#paint10_linear_241_2)"/>
<path fill-rule="evenodd" clip-rule="evenodd" d="M213.739 96.498C220.825 75.112 222.461 44.432 189.045 38.736L161.627 53.88L213.739 96.498Z" fill="url(#paint11_linear_241_2)"/>
<path fill-rule="evenodd" clip-rule="evenodd" d="M38 181.315C38.981 216.611 64.446 217.137 75.294 217.447L50.237 158.93L38 181.315Z" fill="#9E1209"/>
<path fill-rule="evenodd" clip-rule="evenodd" d="M147.627 100.695C163.635 110.534 195.896 130.294 196.55 130.657C197.567 131.23 210.459 108.917 213.385 96.307L147.627 100.695Z" fill="url(#paint12_radial_241_2)"/>
<path fill-rule="evenodd" clip-rule="evenodd" d="M95.99 148.527L123.753 202.092C140.169 193.189 153.025 182.342 164.799 170.722L95.99 148.527Z" fill="url(#paint13_radial_241_2)"/>
<path fill-rule="evenodd" clip-rule="evenodd" d="M50.1281 159.002L46.1951 205.844C53.6171 215.983 63.8281 216.864 74.5401 216.074C66.7901 196.787 51.3101 158.221 50.1281 159.002Z" fill="url(#paint14_linear_241_2)"/>
<path fill-rule="evenodd" clip-rule="evenodd" d="M161.464 53.999L216.619 61.739C213.676 49.265 204.636 41.216 189.228 38.699L161.464 53.999Z" fill="url(#paint15_linear_241_2)"/>
</g>
</g>
<defs>
<linearGradient id="paint0_linear_241_2" x1="196.145" y1="233.825" x2="158.172" y2="166.782" gradientUnits="userSpaceOnUse">
<stop stop-color="#FB7655"/>
<stop offset="0.41" stop-color="#E42B1E"/>
<stop offset="0.99" stop-color="#990000"/>
<stop offset="1" stop-color="#990000"/>
</linearGradient>
<linearGradient id="paint1_linear_241_2" x1="215.061" y1="177.506" x2="166.123" y2="144.666" gradientUnits="userSpaceOnUse">
<stop stop-color="#871101"/>
<stop offset="0.99" stop-color="#911209"/>
<stop offset="1" stop-color="#911209"/>
</linearGradient>
<linearGradient id="paint2_linear_241_2" x1="175.905" y1="235.857" x2="126.969" y2="203.017" gradientUnits="userSpaceOnUse">
<stop stop-color="#871101"/>
<stop offset="0.99" stop-color="#911209"/>
<stop offset="1" stop-color="#911209"/>
</linearGradient>
<linearGradient id="paint3_linear_241_2" x1="73.1551" y1="153.734" x2="80.7421" y2="203.038" gradientUnits="userSpaceOnUse">
<stop stop-color="white"/>
<stop offset="0.23" stop-color="#E57252"/>
<stop offset="0.46" stop-color="#DE3B20"/>
<stop offset="0.99" stop-color="#A60003"/>
<stop offset="1" stop-color="#A60003"/>
</linearGradient>
<linearGradient id="paint4_linear_241_2" x1="125.336" y1="107.695" x2="128.131" y2="158.014" gradientUnits="userSpaceOnUse">
<stop stop-color="white"/>
<stop offset="0.23" stop-color="#E4714E"/>
<stop offset="0.56" stop-color="#BE1A0D"/>
<stop offset="0.99" stop-color="#A80D00"/>
<stop offset="1" stop-color="#A80D00"/>
</linearGradient>
<linearGradient id="paint5_linear_241_2" x1="171.642" y1="61.186" x2="180.01" y2="97.249" gradientUnits="userSpaceOnUse">
<stop stop-color="white"/>
<stop offset="0.18" stop-color="#E46342"/>
<stop offset="0.4" stop-color="#C82410"/>
<stop offset="0.99" stop-color="#A80D00"/>
<stop offset="1" stop-color="#A80D00"/>
</linearGradient>
<linearGradient id="paint6_linear_241_2" x1="146.089" y1="48.485" x2="182.15" y2="30.455" gradientUnits="userSpaceOnUse">
<stop stop-color="white"/>
<stop offset="0.54" stop-color="#C81F11"/>
<stop offset="0.99" stop-color="#BF0905"/>
<stop offset="1" stop-color="#BF0905"/>
</linearGradient>
<linearGradient id="paint7_linear_241_2" x1="41.546" y1="141.164" x2="44.514" y2="170.879" gradientUnits="userSpaceOnUse">
<stop stop-color="white"/>
<stop offset="0.31" stop-color="#DE4024"/>
<stop offset="0.99" stop-color="#BF190B"/>
<stop offset="1" stop-color="#BF190B"/>
</linearGradient>
<linearGradient id="paint8_linear_241_2" x1="21.142" y1="178.912" x2="160.661" y2="35.448" gradientUnits="userSpaceOnUse">
<stop stop-color="#BD0012"/>
<stop offset="0.07" stop-color="white"/>
<stop offset="0.17" stop-color="white"/>
<stop offset="0.27" stop-color="#C82F1C"/>
<stop offset="0.33" stop-color="#820C01"/>
<stop offset="0.46" stop-color="#A31601"/>
<stop offset="0.72" stop-color="#B31301"/>
<stop offset="0.99" stop-color="#E82609"/>
<stop offset="1" stop-color="#E82609"/>
</linearGradient>
<linearGradient id="paint9_linear_241_2" x1="128.009" y1="193.383" x2="85.985" y2="183.011" gradientUnits="userSpaceOnUse">
<stop stop-color="#8C0C01"/>
<stop offset="0.54" stop-color="#990C00"/>
<stop offset="0.99" stop-color="#A80D0E"/>
<stop offset="1" stop-color="#A80D0E"/>
</linearGradient>
<linearGradient id="paint10_linear_241_2" x1="200.19" y1="142.944" x2="162.857" y2="109.484" gradientUnits="userSpaceOnUse">
<stop stop-color="#7E110B"/>
<stop offset="0.99" stop-color="#9E0C00"/>
<stop offset="1" stop-color="#9E0C00"/>
</linearGradient>
<linearGradient id="paint11_linear_241_2" x1="213.906" y1="81.55" x2="195.31" y2="61.67" gradientUnits="userSpaceOnUse">
<stop stop-color="#79130D"/>
<stop offset="0.99" stop-color="#9E120B"/>
<stop offset="1" stop-color="#9E120B"/>
</linearGradient>
<radialGradient id="paint12_radial_241_2" cx="0" cy="0" r="1" gradientUnits="userSpaceOnUse" gradientTransform="translate(168.67 110.124) scale(45.7496)">
<stop stop-color="#A80D00"/>
<stop offset="0.99" stop-color="#7E0E08"/>
<stop offset="1" stop-color="#7E0E08"/>
</radialGradient>
<radialGradient id="paint13_radial_241_2" cx="0" cy="0" r="1" gradientUnits="userSpaceOnUse" gradientTransform="translate(105.313 170.414) scale(60.818 60.818)">
<stop stop-color="#A30C00"/>
<stop offset="0.99" stop-color="#800E08"/>
<stop offset="1" stop-color="#800E08"/>
</radialGradient>
<linearGradient id="paint14_linear_241_2" x1="62.2291" y1="217.279" x2="47.0751" y2="165.863" gradientUnits="userSpaceOnUse">
<stop stop-color="#8B2114"/>
<stop offset="0.43" stop-color="#9E100A"/>
<stop offset="0.99" stop-color="#B3100C"/>
<stop offset="1" stop-color="#B3100C"/>
</linearGradient>
<linearGradient id="paint15_linear_241_2" x1="178.491" y1="46.901" x2="212.466" y2="61.899" gradientUnits="userSpaceOnUse">
<stop stop-color="#B31000"/>
<stop offset="0.44" stop-color="#910F08"/>
<stop offset="0.99" stop-color="#791C12"/>
<stop offset="1" stop-color="#791C12"/>
</linearGradient>
<clipPath id="clip0_241_2">
<rect width="256" height="256" fill="white"/>
</clipPath>
</defs>
</svg>
