<svg width="200" height="200" viewBox="0 0 200 200" fill="none" xmlns="http://www.w3.org/2000/svg">
<g clip-path="url(#clip0_1264_124)">
<path d="M153.125 0H46.875C20.9867 0 0 20.9867 0 46.875V153.125C0 179.013 20.9867 200 46.875 200H153.125C179.013 200 200 179.013 200 153.125V46.875C200 20.9867 179.013 0 153.125 0Z" fill="#007ACC"/>
<path d="M44.2273 100.663L44.1641 108.854H70.1953V182.822H88.6094V108.854H114.641V100.822C114.641 96.3773 114.546 92.6632 114.419 92.5679C114.323 92.4414 98.482 92.3773 79.2758 92.4093L44.3234 92.5047L44.2273 100.663ZM161.38 92.2718C166.459 93.5422 170.333 95.7961 173.888 99.4781C175.73 101.447 178.459 105.034 178.682 105.891C178.745 106.145 170.047 111.987 164.777 115.256C164.587 115.384 163.824 114.558 162.967 113.288C160.396 109.542 157.698 107.923 153.57 107.637C147.507 107.224 143.602 110.399 143.634 115.701C143.634 117.256 143.856 118.177 144.491 119.447C145.824 122.209 148.301 123.859 156.079 127.224C170.396 133.384 176.523 137.447 180.333 143.224C184.587 149.669 185.539 159.955 182.65 167.605C179.476 175.923 171.602 181.573 160.523 183.447C157.095 184.05 148.967 183.955 145.285 183.288C137.253 181.859 129.634 177.891 124.936 172.685C123.095 170.653 119.507 165.352 119.73 164.97C119.824 164.844 120.65 164.336 121.57 163.796C122.459 163.288 125.825 161.352 128.999 159.51L134.745 156.177L135.952 157.955C137.634 160.526 141.316 164.05 143.539 165.224C149.92 168.59 158.682 168.113 162.999 164.241C164.841 162.558 165.602 160.812 165.602 158.241C165.602 155.923 165.316 154.907 164.11 153.161C162.555 150.939 159.38 149.066 150.364 145.161C140.047 140.716 135.602 137.955 131.539 133.573C129.19 131.034 126.967 126.97 126.047 123.573C125.285 120.748 125.095 113.669 125.698 110.812C127.824 100.844 135.348 93.8914 146.205 91.8273C149.73 91.1609 157.92 91.4148 161.38 92.2718Z" fill="white"/>
</g>
<defs>
<clipPath id="clip0_1264_124">
<rect width="200" height="200" fill="white"/>
</clipPath>
</defs>
</svg>
