<svg width="200" height="195" viewBox="0 0 200 195" fill="none" xmlns="http://www.w3.org/2000/svg">
<g clip-path="url(#clip0_1264_134)">
<path d="M110.998 149.287C110.998 174.135 90.8554 194.28 66.007 194.28C41.1554 194.28 21.0125 174.135 21.0125 149.287C21.0125 124.438 41.1546 104.293 66.007 104.293C90.8554 104.293 110.998 124.438 110.998 149.287Z" fill="#FF6600"/>
<path d="M199.984 86.296C199.984 111.141 179.842 131.29 154.994 131.29C130.142 131.29 110 111.141 110 86.296C110 61.4468 130.141 41.2983 154.994 41.2983C179.842 41.2983 199.984 61.4468 199.984 86.296Z" fill="#FFCC00"/>
<path d="M90 85.2969C90 110.142 69.8586 130.291 45.0063 130.291C20.1609 130.291 0.015625 110.143 0.015625 85.2977C0.015625 60.4485 20.1609 40.3 45.0063 40.3C69.8578 40.3 90 60.4477 90 85.2969Z" fill="#0089CC"/>
<path d="M179.989 149.287C179.989 174.135 159.847 194.28 134.991 194.28C110.146 194.28 90.0007 174.135 90.0007 149.287C90.0007 124.438 110.146 104.293 134.991 104.293C159.847 104.293 179.989 124.438 179.989 149.287Z" fill="#009939"/>
<path d="M144.994 45.3007C144.994 70.1491 124.848 90.2944 100 90.2944C75.1515 90.2944 55.0062 70.1483 55.0062 45.3007C55.0062 20.453 75.1515 0.306152 100 0.306152C124.848 0.306152 144.994 20.4522 144.994 45.3007Z" fill="#BF0000"/>
<path d="M109.999 86.2953C109.999 87.2421 110.081 88.1687 110.141 89.1023C130.098 84.4976 144.992 66.6546 144.992 45.2992C144.992 44.3523 144.91 43.4226 144.852 42.489C124.894 47.096 109.999 64.9398 109.999 86.2953Z" fill="#FC0007"/>
<path d="M115.935 108.574C123.689 122.13 138.26 131.289 154.995 131.289C161.816 131.289 168.258 129.726 174.052 127.008C166.302 113.453 151.73 104.294 134.992 104.294C128.172 104.294 121.73 105.855 115.935 108.574Z" fill="#1CD306"/>
<path d="M90 149.287C90 160.28 93.9516 170.339 100.502 178.152C107.045 170.34 110.997 160.28 110.997 149.287C110.997 138.295 107.045 128.234 100.502 120.421C93.9516 128.234 90 138.294 90 149.287Z" fill="#0F7504"/>
<path d="M27.193 126.607C32.816 129.041 38.8789 130.295 45.0063 130.292C61.5766 130.292 76.0125 121.31 83.8227 107.976C78.1994 105.543 72.1365 104.29 66.0094 104.295C49.4391 104.295 35 113.275 27.193 126.607Z" fill="#0C5E87"/>
<path d="M55.1992 41.5046C55.093 42.7578 55.0039 44.0179 55.0039 45.3015C55.0039 66.6398 69.8758 84.4671 89.8102 89.0906C89.9117 87.8375 90.0016 86.5773 90.0016 85.2976C90.0016 63.9585 75.1328 46.1257 55.1992 41.5046Z" fill="#6B0001"/>
<path d="M59.3984 143.719H52.3601C46.1468 143.719 41.0945 138.683 41.0945 132.485V68.7772C41.0945 62.5804 46.1468 57.5405 52.3601 57.5405H140.617C146.831 57.5405 151.88 62.5796 151.88 68.7772V132.485C151.88 138.683 146.831 143.719 140.617 143.719H110.552L50.2265 173.289L59.3984 143.719Z" fill="white"/>
</g>
<defs>
<clipPath id="clip0_1264_134">
<rect width="200" height="194.531" fill="white"/>
</clipPath>
</defs>
</svg>
