<svg width="37" height="34" viewBox="0 0 37 34" fill="none" xmlns="http://www.w3.org/2000/svg">
<path d="M9.06678 9.06665H16.6223C17.0231 9.06665 17.4075 9.22586 17.6908 9.50924C17.9742 9.79263 18.1334 10.177 18.1334 10.5778C18.1334 10.9785 17.9742 11.3629 17.6908 11.6463C17.4075 11.9297 17.0231 12.0889 16.6223 12.0889H9.06678C8.666 12.0889 8.28165 11.9297 7.99826 11.6463C7.71487 11.3629 7.55566 10.9785 7.55566 10.5778C7.55566 10.177 7.71487 9.79263 7.99826 9.50924C8.28165 9.22586 8.666 9.06665 9.06678 9.06665ZM19.6446 21.1555H27.2001C27.6009 21.1555 27.9852 21.3147 28.2686 21.5981C28.552 21.8815 28.7112 22.2659 28.7112 22.6666C28.7112 23.0674 28.552 23.4518 28.2686 23.7352C27.9852 24.0186 27.6009 24.1778 27.2001 24.1778H19.6446C19.2438 24.1778 18.8594 24.0186 18.576 23.7352C18.2926 23.4518 18.1334 23.0674 18.1334 22.6666C18.1334 22.2659 18.2926 21.8815 18.576 21.5981C18.8594 21.3147 19.2438 21.1555 19.6446 21.1555ZM9.06678 15.1111H27.2001C27.6009 15.1111 27.9852 15.2703 28.2686 15.5537C28.552 15.8371 28.7112 16.2214 28.7112 16.6222C28.7112 17.023 28.552 17.4073 28.2686 17.6907C27.9852 17.9741 27.6009 18.1333 27.2001 18.1333H9.06678C8.666 18.1333 8.28165 17.9741 7.99826 17.6907C7.71487 17.4073 7.55566 17.023 7.55566 16.6222C7.55566 16.2214 7.71487 15.8371 7.99826 15.5537C8.28165 15.2703 8.666 15.1111 9.06678 15.1111Z" fill="#F0CECE"/>
<rect x="0.377778" y="0.377778" width="35.5111" height="33.2444" rx="7.93333" stroke="#F0CECE" stroke-width="0.755556"/>
</svg>
