<svg width="133" height="133" viewBox="0 0 133 133" fill="none" xmlns="http://www.w3.org/2000/svg">
<path d="M124.688 118.869L113.05 107.231C115.128 103.906 116.375 99.75 116.375 95.5938C116.375 83.9562 107.231 74.8125 95.5938 74.8125C83.9562 74.8125 74.8125 83.9562 74.8125 95.5938C74.8125 107.231 83.9562 116.375 95.5938 116.375C99.75 116.375 103.906 115.128 107.231 113.05L118.869 124.688L124.688 118.869ZM83.125 95.5938C83.125 88.5281 88.5281 83.125 95.5938 83.125C102.659 83.125 108.062 88.5281 108.062 95.5938C108.062 102.659 102.659 108.062 95.5938 108.062C88.5281 108.062 83.125 102.659 83.125 95.5938ZM33.25 66.5H74.8125V74.8125H33.25V66.5ZM33.25 41.5625H83.125V49.875H33.25V41.5625Z" fill="#C188C6" fill-opacity="0.21"/>
<path d="M58.1875 115.128L36.575 103.491C24.1063 97.2562 16.625 84.3719 16.625 70.6562V16.625H99.75V62.3438H108.062V16.625C108.062 12.0531 104.322 8.3125 99.75 8.3125H16.625C12.0531 8.3125 8.3125 12.0531 8.3125 16.625V70.6562C8.3125 87.6969 17.4563 103.075 32.4188 110.972L58.1875 124.688V115.128Z" fill="#C188C6" fill-opacity="0.21"/>
</svg>
