<svg width="37" height="35" viewBox="0 0 37 35" fill="none" xmlns="http://www.w3.org/2000/svg">
<path d="M17.2472 12.7402C18.0732 13.5672 18.4872 13.9802 19.0002 13.9802C19.5142 13.9802 19.9272 13.5672 20.7532 12.7402L22.5072 10.9872C22.9142 10.5792 23.1182 10.3752 23.3302 10.2532C24.3962 9.63716 25.2752 10.2482 26.0132 10.9872C26.7522 11.7252 27.3632 12.6042 26.7472 13.6702C26.6252 13.8822 26.4212 14.0862 26.0132 14.4932L24.2602 16.2472C23.4332 17.0732 23.0202 17.4872 23.0202 18.0002C23.0202 18.5142 23.4332 18.9272 24.2602 19.7532L26.0132 21.5072C26.4212 21.9142 26.6252 22.1182 26.7472 22.3302C27.3632 23.3962 26.7522 24.2752 26.0132 25.0132C25.2752 25.7522 24.3962 26.3632 23.3302 25.7472C23.1182 25.6252 22.9142 25.4212 22.5072 25.0132L20.7532 23.2602C19.9272 22.4342 19.5132 22.0202 19.0002 22.0202C18.4862 22.0202 18.0732 22.4342 17.2472 23.2602L15.4932 25.0132C15.0862 25.4212 14.8822 25.6252 14.6702 25.7472C13.6042 26.3632 12.7252 25.7522 11.9872 25.0132C11.2482 24.2752 10.6372 23.3962 11.2532 22.3302C11.3752 22.1182 11.5792 21.9142 11.9872 21.5072L13.7402 19.7532C14.5672 18.9272 14.9802 18.5132 14.9802 18.0002C14.9802 17.4862 14.5662 17.0732 13.7402 16.2472L11.9872 14.4932C11.5792 14.0862 11.3752 13.8822 11.2532 13.6702C10.6372 12.6042 11.2482 11.7252 11.9872 10.9872C12.7252 10.2482 13.6042 9.63716 14.6702 10.2532C14.8822 10.3752 15.0862 10.5792 15.4932 10.9872L17.2472 12.7402Z" stroke="#F0CECE" stroke-width="1.5" stroke-linecap="round" stroke-linejoin="round"/>
<path d="M28.5778 1H8.93333C4.55187 1 1 4.55187 1 8.93333V26.3111C1 30.6925 4.55187 34.2444 8.93333 34.2444H28.5778C32.9592 34.2444 36.5111 30.6925 36.5111 26.3111V8.93333C36.5111 4.55187 32.9592 1 28.5778 1Z" stroke="#F0CECE" stroke-width="0.755556"/>
</svg>
