<svg width="32" height="32" viewBox="0 0 32 32" fill="none" xmlns="http://www.w3.org/2000/svg">
<g clip-path="url(#clip0_2412_4)">
<path d="M24.75 17.542C23.281 17.542 21.901 16.922 20.651 15.907L20.953 14.475L20.963 14.418C21.239 12.897 22.093 10.34 24.749 10.34C25.7048 10.3402 26.6213 10.72 27.2971 11.3959C27.9729 12.0717 28.3527 12.9882 28.353 13.944C28.3514 14.8989 27.971 15.8141 27.2954 16.4889C26.6197 17.1636 25.7039 17.5427 24.749 17.543L24.75 17.542ZM24.75 6.69298C21.365 6.69298 18.734 8.89098 17.667 12.511C16.042 10.068 14.802 7.13098 14.084 4.65698H10.438V14.141C10.4362 15.0411 10.0778 15.9038 9.44129 16.5403C8.80482 17.1767 7.94211 17.5351 7.042 17.537C6.14214 17.5343 5.27988 17.1757 4.64358 16.5394C4.00728 15.9031 3.64864 15.0408 3.646 14.141V4.65698H0V14.141C0 18.026 3.161 21.209 7.042 21.209C10.927 21.209 14.084 18.027 14.084 14.141V12.552C14.792 14.026 15.662 15.526 16.719 16.849L14.485 27.344H18.214L19.834 19.729C21.251 20.635 22.881 21.208 24.751 21.208C28.751 21.208 32.001 17.937 32.001 13.942C32.001 9.94198 28.751 6.69198 24.751 6.69198L24.75 6.69298Z" fill="white"/>
</g>
<defs>
<clipPath id="clip0_2412_4">
<rect width="32" height="32" fill="white"/>
</clipPath>
</defs>
</svg>
