<svg width="54" height="54" viewBox="0 0 54 54" fill="none" xmlns="http://www.w3.org/2000/svg">
<path d="M3.70917 18.0377C-1.23639 22.8873 -1.23639 30.9946 3.70917 35.9391L18.0377 50.2666C22.8873 55.2111 30.9946 55.2111 35.9391 50.2666L50.2666 35.9391C55.2111 30.9946 55.2111 22.8873 50.2666 18.0377L35.9391 3.70917C30.9946 -1.23639 22.8873 -1.23639 18.0377 3.70917L3.70917 18.0377ZM33.2613 33.2613C29.7927 36.7193 24.1841 36.7193 20.7261 33.2613C17.2575 29.7927 17.2575 24.1841 20.7261 20.7261C24.1841 17.2575 29.7927 17.2575 33.2613 20.7261C36.7193 24.1841 36.7193 29.7927 33.2613 33.2613Z" fill="white"/>
</svg>
