<svg width="200" height="200" viewBox="0 0 200 200" fill="none" xmlns="http://www.w3.org/2000/svg">
<g clip-path="url(#clip0_1264_32)">
<path d="M153.125 0H46.875C20.9867 0 0 20.9867 0 46.875V153.125C0 179.013 20.9867 200 46.875 200H153.125C179.013 200 200 179.013 200 153.125V46.875C200 20.9867 179.013 0 153.125 0Z" fill="black"/>
<path d="M75.0297 128.028C74.4861 128.029 73.9488 127.912 73.4547 127.686C72.5266 127.268 71.8027 126.498 71.4422 125.546C71.0816 124.594 71.114 123.537 71.532 122.609L83.95 95.0726L84.0008 94.9648L96.1063 68.1179C96.4501 67.4897 96.9568 66.9655 97.573 66.6006C98.1893 66.2356 98.8924 66.0433 99.6086 66.0437C100.325 66.0437 101.028 66.2362 101.644 66.6011C102.26 66.966 102.767 67.4899 103.111 68.1179L127.69 122.609C128.041 123.386 128.123 124.258 127.924 125.087C127.725 125.916 127.256 126.655 126.59 127.188C125.924 127.721 125.1 128.017 124.248 128.03C123.395 128.043 122.563 127.772 121.881 127.26L89.0031 102.549L78.532 125.766C78.2279 126.44 77.7356 127.012 77.1144 127.413C76.4931 127.814 75.7693 128.028 75.0297 128.028ZM92.243 95.3726L114.538 112.133L99.6086 79.039L92.243 95.3726Z" fill="white"/>
<path d="M99.6086 167.969C86.0885 167.969 72.8719 163.96 61.6304 156.449C50.3889 148.937 41.6274 138.261 36.4539 125.77C32.5857 116.431 30.8365 106.351 31.3323 96.2553C31.8281 86.1596 34.5567 76.2995 39.3214 67.3851C44.0861 58.4706 50.7684 50.7238 58.887 44.7024C67.0057 38.6811 76.3586 34.535 86.2723 32.5629C96.1859 30.5909 106.414 30.8418 116.219 33.2977C126.023 35.7536 135.162 40.3533 142.975 46.7656C150.789 53.1779 157.083 61.2431 161.405 70.3805C165.727 79.5178 167.969 89.4999 167.969 99.6078C167.949 117.732 160.741 135.109 147.925 147.925C135.109 160.74 117.733 167.949 99.6086 167.969ZM99.6086 38.9312C87.6074 38.9314 75.8757 42.4903 65.8972 49.158C55.9186 55.8257 48.1414 65.3026 43.5489 76.3904C38.9565 87.4782 37.7551 99.6788 40.0967 111.449C42.4383 123.22 48.2177 134.032 56.704 142.518C65.1904 151.004 76.0026 156.782 87.7732 159.123C99.5439 161.464 111.744 160.262 122.832 155.669C133.92 151.076 143.396 143.299 150.063 133.32C156.73 123.341 160.289 111.609 160.288 99.6078C160.269 83.5206 153.87 68.0978 142.494 56.7226C131.119 45.3475 115.696 38.9496 99.6086 38.9312Z" fill="#EE0000"/>
</g>
<defs>
<clipPath id="clip0_1264_32">
<rect width="200" height="200" fill="white"/>
</clipPath>
</defs>
</svg>
