<svg width="200" height="200" viewBox="0 0 200 200" fill="none" xmlns="http://www.w3.org/2000/svg">
<path d="M126.667 70.4875L126.203 70.4891C123.836 70.5266 118.762 70.5172 114.219 72.5734C109.677 74.6297 105.683 78.8922 105.683 87.0234C105.683 90.4609 106.83 93.4297 108.63 95.9766H72.3641V79.5531H96.1719V71.1922H62.7891V79.5516H62.7922V95.9766H62.7891V104.336H62.7922V123.8L57.1984 123.766L49.4578 123.802L37.3406 104.977C40.1813 103.805 42.9609 102.12 45.1 99.7594C47.4281 97.1922 48.9844 93.8375 48.9844 89.6859V88.4922C48.9844 82.4187 46.6688 78.0609 42.8906 75.2828C39.1141 72.5047 33.9469 71.2766 28.2031 71.1469H9.76562V79.6H9.8125V99.4578H9.76562V107.35H9.8125V132.122H19.3844V107.325L29.0094 107.298L42.2234 128.797L42.2422 128.822C43.3625 130.303 45.6875 133.594 49.4453 135.963L49.7656 136.166L57.3609 132.158L63.4453 132.122H96.1703V123.433H72.3625V104.336H119.438L119.486 104.359C122.403 105.692 125.942 106.898 128.698 108.638C131.453 110.375 133.381 112.527 133.381 115.942C133.381 119.62 131.722 121.545 129.381 122.714C127.041 123.883 123.986 124.172 121.47 124.172H121.466C116.642 124.202 110.969 122.152 106.123 120.534L105.267 120.248V129.441L105.647 129.614C110.403 131.783 117.447 132.63 121.483 132.475C124.38 132.475 129.667 131.906 134.334 129.57C139.009 127.231 143.061 122.992 143.061 115.942C143.061 110.486 141.008 106.573 138.134 103.773C135.259 100.973 131.598 99.2578 128.328 97.9828C127.086 97.5031 124.734 96.5641 122.395 95.2906C120.061 94.0203 117.752 92.3953 116.598 90.6906C115.88 89.525 115.438 88.2281 115.361 87.0016C115.367 83.2828 117.1 81.2781 119.345 80.0953C121.592 78.9109 124.392 78.6578 126.222 78.7906C129.902 79.0562 136.242 81.1344 138.27 81.9984L138.916 82.275L139.853 79.5172H165.236V132.122H174.808V79.5156H192.011V71.2281H174.808V71.1906H165.236V71.2281H132.164C130.327 70.7844 128.481 70.5016 126.666 70.4844L126.667 70.4875ZM126.655 71.7891C128.373 71.8047 130.156 72.075 131.952 72.5141L132.028 72.5328H166.542V72.4953H173.511V72.5328H190.714V78.2156H173.511V130.82H166.542V78.2156H138.927L138.13 80.5547C135.572 79.5391 130.077 77.7641 126.32 77.4922C124.289 77.3469 121.308 77.5922 118.742 78.9453C116.175 80.2969 114.061 82.8672 114.061 87.0234V87.0625C114.152 88.5531 114.677 90.0531 115.503 91.3906L115.509 91.4016L115.517 91.4125C116.895 93.4563 119.353 95.1156 121.778 96.4359C124.203 97.7563 126.605 98.7125 127.863 99.1969C131.066 100.447 134.562 102.109 137.228 104.708C139.895 107.306 141.762 110.808 141.762 115.942C141.762 122.505 138.15 126.208 133.756 128.408C129.362 130.608 124.191 131.175 121.475 131.175H121.448C117.766 131.317 111.011 130.484 106.573 128.581V122.058C111.211 123.622 116.581 125.505 121.478 125.475C124.088 125.475 127.309 125.208 129.969 123.88C132.628 122.552 134.687 120.036 134.687 115.942C134.687 112.022 132.344 109.395 129.397 107.536C126.45 105.677 122.852 104.466 120.031 103.177L119.859 103.095L119.73 103.036H71.0625V124.734H94.8703V130.819H63.4422L57.0359 130.856L49.8391 134.653C46.5312 132.47 44.4203 129.544 43.3 128.059L29.7375 105.994L18.0812 106.025V130.819H11.1172V106.048H11.0703V100.759H11.1172V78.2984H11.0703V72.4484H28.1766C33.75 72.575 38.6563 73.7828 42.1219 76.3313C45.5891 78.8813 47.6859 82.7422 47.6859 88.4922V89.6859C47.6859 93.5141 46.2828 96.5187 44.1391 98.8859C41.9938 101.252 39.0891 102.964 36.1391 104.08L35.3891 104.364C39.8625 111.266 44.3016 118.191 48.7516 125.106L57.2 125.067L64.0969 125.108V103.034H64.0938V97.2781H64.0969V78.25H64.0938V72.4937H94.875V78.25H71.0625V97.2781H111.259L110.386 96.2141C108.28 93.6469 106.986 90.6234 106.986 87.0234C106.986 79.3047 110.55 75.6641 114.758 73.7578C118.964 71.8547 123.831 71.8281 126.227 71.7906C126.369 71.7885 126.512 71.7885 126.656 71.7906L126.655 71.7891ZM18.0812 78.3V100.761H25.9828C29.3047 100.761 32.7969 100.273 35.5344 98.625C38.2703 96.9766 40.1797 94.0938 40.1797 89.6875V88.4938C40.1797 84.0328 37.675 81.3781 34.9672 79.9766C32.2609 78.5734 29.3766 78.3 28.1875 78.3H18.0812ZM19.3844 79.6016H28.1875C29.1563 79.6016 31.9453 79.875 34.3688 81.1312C36.7922 82.3875 38.8781 84.5047 38.8781 88.4938V89.6875C38.8781 93.7313 37.2703 96.0578 34.8625 97.5094C32.4547 98.9609 29.1734 99.4578 25.9828 99.4578H19.3844V79.6016Z" fill="#7F2D2D"/>
<path d="M18.8657 44.3984C18.8082 44.3988 18.7532 44.4219 18.7125 44.4625C18.6719 44.5031 18.6489 44.5581 18.6485 44.6156V48.9031C18.6485 49.1333 18.6625 49.4255 18.6906 49.7797C18.7016 49.9297 18.7141 50.0141 18.725 50.1375C18.5547 49.9422 18.4 49.7359 18.1875 49.5734C17.8438 49.3026 17.4396 49.0891 16.975 48.9328C16.4479 48.7674 15.8977 48.6877 15.3453 48.6969C13.8875 48.6969 12.686 49.1969 11.7985 50.1844C10.9031 51.175 10.4703 52.625 10.4703 54.5C10.4703 56.3562 10.8922 57.7906 11.7672 58.7672C12.6422 59.7391 13.8453 60.2266 15.3141 60.2266C15.9422 60.2266 16.4922 60.1479 16.9641 59.9906C17.437 59.8271 17.8464 59.6068 18.1891 59.3297C18.4297 59.1391 18.6032 58.9125 18.7844 58.6906L18.9797 59.85C18.9885 59.9005 19.0147 59.9463 19.0539 59.9794C19.093 60.0126 19.1425 60.0309 19.1938 60.0312H20.5688C20.6265 60.0312 20.6819 60.0084 20.7229 59.9677C20.7639 59.927 20.7871 59.8718 20.7875 59.8141V44.6156C20.7871 44.5579 20.7639 44.5026 20.7229 44.462C20.6819 44.4213 20.6265 44.3984 20.5688 44.3984H18.8657ZM25.2953 44.8875C24.972 44.8809 24.6577 44.9938 24.4125 45.2047C24.1625 45.4266 24.0532 45.7672 24.0532 46.1687C24.0532 46.5656 24.1625 46.9031 24.4094 47.1297L24.4125 47.1312C24.6574 47.3427 24.9718 47.4562 25.2953 47.45C25.6203 47.45 25.9203 47.3406 26.1547 47.1328C26.4157 46.9094 26.5375 46.5672 26.5375 46.1687C26.5375 45.7641 26.4157 45.4203 26.1532 45.2031C25.9153 44.9957 25.6109 44.8833 25.2953 44.8875ZM59.3078 48.4766C58.3808 48.4745 57.5813 48.6245 56.9094 48.9266C56.2391 49.2281 55.7157 49.6766 55.3563 50.2594C54.9969 50.8391 54.8219 51.5375 54.8219 52.3375C54.8219 53.0969 55.0141 53.7781 55.4 54.3625L55.4032 54.3641C55.7203 54.8281 56.1391 55.1594 56.6125 55.4078C56.2766 55.6328 55.9875 55.8672 55.7907 56.1203C55.5367 56.453 55.4014 56.8612 55.4063 57.2797C55.4063 57.6625 55.5266 58.0156 55.761 58.3125L55.7625 58.3156C55.8865 58.4667 56.0245 58.5979 56.1766 58.7094C55.5782 58.8953 55.05 59.1578 54.6657 59.5625C54.1892 60.0668 53.9274 60.7376 53.9391 61.4313C53.9391 62.4359 54.3875 63.2562 55.236 63.8094C56.0875 64.3719 57.2703 64.6375 58.7735 64.6375C60.7125 64.6375 62.2157 64.3203 63.2813 63.6562C64.3438 62.9922 64.9016 61.9937 64.9016 60.7469C64.9016 59.7594 64.5391 58.9625 63.8297 58.4344C63.1266 57.9062 62.1407 57.6594 60.8875 57.6594H58.9063C58.6161 57.6617 58.3263 57.6372 58.0407 57.5859C57.8634 57.553 57.697 57.4768 57.5563 57.3641C57.4719 57.2828 57.4313 57.1875 57.4313 57.0266C57.4313 56.7922 57.4969 56.5984 57.6391 56.4203C57.826 56.2129 58.0509 56.0432 58.3016 55.9203C58.6063 55.9641 58.9094 55.9922 59.2047 55.9922C60.5657 55.9922 61.6657 55.6703 62.4719 55.0047C63.2782 54.3344 63.6907 53.4078 63.6907 52.2891C63.6907 51.8286 63.6177 51.4052 63.4719 51.0187C63.3735 50.7641 63.2328 50.5656 63.1 50.3562L64.8532 50.15C64.9059 50.1435 64.9545 50.1181 64.9899 50.0784C65.0253 50.0387 65.045 49.9875 65.0453 49.9344V48.8891C65.0449 48.8316 65.0219 48.7766 64.9813 48.7359C64.9406 48.6953 64.8856 48.6723 64.8282 48.6719H60.9891C60.8345 48.6327 60.6781 48.6014 60.5203 48.5781C60.3206 48.5444 60.1193 48.5204 59.9172 48.5062C59.7147 48.4864 59.5113 48.4765 59.3078 48.4766ZM34.436 48.5156C33.6922 48.5156 32.9823 48.6062 32.3063 48.7875C31.6925 48.9462 31.0954 49.1639 30.5235 49.4375C30.4738 49.4622 30.4354 49.5048 30.416 49.5567C30.3965 49.6086 30.3975 49.666 30.4188 49.7172L30.9422 50.9469C30.9537 50.9735 30.9704 50.9975 30.9913 51.0176C31.0122 51.0377 31.0369 51.0535 31.064 51.0639C31.091 51.0744 31.1199 51.0794 31.1489 51.0786C31.1779 51.0778 31.2064 51.0713 31.2328 51.0594C31.7016 50.8417 32.1985 50.6531 32.7235 50.4938C33.2349 50.3375 33.775 50.2594 34.3438 50.2594C35.0672 50.2594 35.5953 50.4328 35.9641 50.7594C36.3141 51.0719 36.5172 51.65 36.5172 52.5422V52.9891L34.786 53.0578C32.9453 53.1109 31.5563 53.4219 30.6141 54.0297C29.6735 54.6359 29.1797 55.5453 29.1797 56.675C29.1797 57.4141 29.3375 58.0453 29.6672 58.55V58.5531C29.9985 59.0484 30.4532 59.4234 31.0141 59.6672C31.5787 59.9078 32.2177 60.0276 32.9281 60.0266C33.5917 60.0276 34.1594 59.9599 34.6313 59.8234C35.1063 59.6786 35.5261 59.4677 35.8906 59.1906H35.8938C36.1688 58.975 36.425 58.6906 36.6813 58.4016L36.9438 59.6594C36.9544 59.7076 36.981 59.7509 37.0193 59.7821C37.0576 59.8133 37.1053 59.8306 37.1547 59.8312H38.3969C38.4546 59.8312 38.5101 59.8084 38.551 59.7677C38.592 59.727 38.6152 59.6718 38.6157 59.6141V52.3375C38.6157 51.0437 38.275 50.0562 37.5657 49.4312C36.861 48.8078 35.8078 48.5156 34.436 48.5156ZM47.5203 48.6969C46.9933 48.6969 46.4907 48.7682 46.0125 48.9109C45.545 49.0395 45.1031 49.2478 44.7063 49.5266C44.4291 49.7235 44.1827 49.9604 43.975 50.2297L43.7828 49.0734C43.7741 49.0229 43.7478 48.9771 43.7087 48.944C43.6696 48.9109 43.62 48.8925 43.5688 48.8922H42.1938C42.1363 48.8926 42.0813 48.9156 42.0407 48.9562C42 48.9969 41.977 49.0519 41.9766 49.1094V59.8141C41.9766 59.8718 41.9994 59.9272 42.0401 59.9682C42.0808 60.0092 42.136 60.0324 42.1938 60.0328H43.8969C43.9549 60.0328 44.0106 60.0098 44.0516 59.9687C44.0926 59.9277 44.1157 59.8721 44.1157 59.8141V54.2078C44.1157 52.9594 44.3641 52.0359 44.8297 51.4187C45.2844 50.8156 46.0782 50.4969 47.2828 50.4969C48.1297 50.4969 48.7141 50.7062 49.0875 51.0953C49.4688 51.4859 49.6735 52.0906 49.6735 52.9469V59.8141C49.6735 59.8718 49.6963 59.9272 49.737 59.9682C49.7777 60.0092 49.8329 60.0324 49.8907 60.0328H51.5735C51.6312 60.0324 51.6865 60.0092 51.7271 59.9682C51.7678 59.9272 51.7907 59.8718 51.7907 59.8141V52.8406C51.7907 51.4312 51.436 50.3641 50.6938 49.6906C49.9578 49.0187 48.8875 48.6969 47.5203 48.6969ZM71.7844 48.7172C70.6782 48.7161 69.7157 48.9432 68.8969 49.3984C68.086 49.8484 67.4594 50.5141 67.0235 51.375C66.586 52.2328 66.3735 53.2656 66.3735 54.4625C66.3724 55.3625 66.5 56.1714 66.7563 56.8891C67.0188 57.6047 67.3865 58.2141 67.8594 58.7141C68.3407 59.212 68.9073 59.5937 69.5563 59.8594L69.5594 59.8609C70.2157 60.1182 70.9334 60.2469 71.7125 60.2469C72.5417 60.2479 73.2896 60.1193 73.9563 59.8609C74.6292 59.5953 75.2021 59.213 75.675 58.7141C76.15 58.213 76.512 57.6042 76.761 56.8875C77.0089 56.1687 77.1323 55.3604 77.1313 54.4625C77.1313 53.2703 76.9125 52.2406 76.4594 51.3828C76.0439 50.5493 75.3895 49.8585 74.5797 49.3984C73.7745 48.9432 72.8438 48.7161 71.7844 48.7172ZM24.4219 48.8922C24.3642 48.8922 24.3087 48.915 24.2678 48.9557C24.2268 48.9964 24.2036 49.0516 24.2031 49.1094V61.5437C24.2031 62.1625 24.0641 62.5406 23.8485 62.7266C23.6047 62.9359 23.2875 63.0453 22.861 63.0453C22.5985 63.0453 22.3651 63.0271 22.161 62.9906L22.1547 62.9891C21.9466 62.9561 21.7409 62.9091 21.5391 62.8484C21.5065 62.8387 21.472 62.8367 21.4385 62.8427C21.405 62.8486 21.3733 62.8623 21.346 62.8826C21.3187 62.9029 21.2965 62.9294 21.2812 62.9598C21.2659 62.9902 21.2579 63.0238 21.2578 63.0578V64.3766C21.2583 64.4218 21.2729 64.4659 21.2995 64.5025C21.3261 64.5392 21.3634 64.5667 21.4063 64.5812C21.6104 64.65 21.8464 64.7078 22.1141 64.7547C22.3901 64.8099 22.7078 64.8375 23.0672 64.8375C23.7906 64.8375 24.4016 64.7094 24.8953 64.4391C25.3784 64.1778 25.7634 63.7665 25.9922 63.2672C26.2266 62.7672 26.3433 62.1797 26.3422 61.5047V49.1094C26.3418 49.0516 26.3186 48.9964 26.2776 48.9557C26.2366 48.915 26.1812 48.8922 26.1235 48.8922H24.4219ZM59.2469 50.1109C60.025 50.1109 60.575 50.3016 60.9422 50.6578C61.3078 51.0047 61.5016 51.5344 61.5016 52.2984C61.5016 53.0078 61.3141 53.5078 60.9547 53.85C60.5953 54.1922 60.0453 54.3766 59.2672 54.3766C58.5172 54.3766 57.9719 54.1937 57.5969 53.8484C57.2219 53.5031 57.0313 53.0156 57.0313 52.3281C57.0313 51.5719 57.225 51.0359 57.5922 50.675C57.9688 50.3047 58.5047 50.1109 59.2469 50.1109ZM15.5813 50.4797C16.7906 50.4797 17.5594 50.8187 17.9844 51.475C18.4297 52.1531 18.6688 53.1578 18.6688 54.4922V54.7859C18.6688 56.0406 18.4219 56.9578 17.9656 57.5547C17.5156 58.1391 16.7469 58.4453 15.5813 58.4453C14.5766 58.4453 13.8766 58.1219 13.3969 57.4625C12.9203 56.7969 12.6672 55.8281 12.6672 54.5406C12.6672 53.2484 12.9235 52.2516 13.4094 51.5375C13.8953 50.8234 14.5875 50.4797 15.5813 50.4797ZM71.7438 50.5187C72.5063 50.5187 73.1063 50.6812 73.561 50.9891C74.0235 51.3016 74.3625 51.7437 74.5891 52.3328C74.8172 52.9203 74.9318 53.6318 74.9328 54.4641C74.9318 55.3026 74.8172 56.0224 74.5891 56.6234C74.3948 57.1756 74.0311 57.6524 73.55 57.9859C73.0938 58.3031 72.5032 58.4656 71.7532 58.4656C70.9985 58.4656 70.4032 58.3016 69.9469 57.9875C69.4711 57.6504 69.1118 57.1737 68.9188 56.6234C68.6896 56.0224 68.575 55.3026 68.575 54.4641C68.575 53.1922 68.8375 52.2219 69.3407 51.5359H69.3422V51.5344C69.8453 50.8594 70.6188 50.5187 71.7438 50.5187ZM36.4969 54.5656V55.3281C36.4969 56.3391 36.2016 57.0516 35.6203 57.5344C35.0266 58.0266 34.2672 58.275 33.3063 58.275C32.6969 58.275 32.2313 58.1391 31.8875 57.8797C31.5547 57.6297 31.3875 57.2609 31.3875 56.6953C31.3875 56.0516 31.6297 55.5953 32.1531 55.2437C32.6656 54.9031 33.6235 54.6781 35.0078 54.6266L36.4969 54.5656ZM58.3532 59.6078H60.3032C60.8677 59.6078 61.3391 59.6458 61.7172 59.7219H61.7203C62.086 59.7875 62.3391 59.9141 62.5047 60.0875C62.661 60.2578 62.7547 60.5203 62.7547 60.9156C62.7629 61.3033 62.6174 61.6785 62.35 61.9594L62.3469 61.9625C62.0813 62.2594 61.6625 62.5016 61.0735 62.6703H61.0719C60.4907 62.8453 59.7417 62.9339 58.825 62.9359C57.8969 62.9359 57.2016 62.7812 56.7391 62.5062C56.2782 62.2359 56.0766 61.8891 56.0766 61.3734C56.0766 60.9719 56.1657 60.6547 56.336 60.4031C56.5141 60.1469 56.7657 59.9547 57.1094 59.8172C57.4532 59.6786 57.8677 59.6088 58.3532 59.6078ZM86.6657 139.861C85.8729 139.859 85.1907 140 84.6188 140.284C84.0418 140.574 83.5778 141.048 83.3 141.631C82.9985 142.234 82.8563 142.995 82.8563 143.917V144.464L81.0266 144.958C80.9806 144.97 80.94 144.998 80.911 145.035C80.8819 145.073 80.866 145.12 80.8657 145.167V145.948C80.8661 146.006 80.8891 146.061 80.9297 146.102C80.9704 146.142 81.0254 146.165 81.0828 146.166H82.8563V155.384C82.8567 155.442 82.8797 155.497 82.9203 155.537C82.961 155.578 83.016 155.601 83.0735 155.602H84.7766C84.8346 155.602 84.8902 155.579 84.9313 155.537C84.9723 155.496 84.9953 155.441 84.9953 155.383V146.164H87.5782C87.6354 146.164 87.6901 146.141 87.7307 146.101C87.7713 146.06 87.7945 146.006 87.7953 145.948V144.678C87.7949 144.621 87.7719 144.566 87.7313 144.525C87.6906 144.484 87.6356 144.461 87.5782 144.461H84.9938V143.898C84.9938 143.07 85.1485 142.492 85.4094 142.155C85.6797 141.808 86.0813 141.633 86.686 141.633C86.9714 141.633 87.2495 141.664 87.5203 141.725H87.525C87.8146 141.783 88.0709 141.847 88.2938 141.917C88.3479 141.934 88.4062 141.929 88.4566 141.903C88.507 141.877 88.5455 141.833 88.5641 141.78L89.0047 140.5C89.0231 140.445 89.0192 140.386 88.9937 140.334C88.9683 140.282 88.9233 140.242 88.8688 140.223C88.5474 140.119 88.2197 140.035 87.8875 139.973C87.4849 139.896 87.0757 139.858 86.6657 139.861ZM182.145 139.969C182.088 139.969 182.032 139.992 181.991 140.032C181.95 140.073 181.927 140.128 181.927 140.186V155.384C181.927 155.442 181.95 155.497 181.991 155.538C182.032 155.579 182.088 155.602 182.145 155.602H183.839C183.897 155.601 183.951 155.577 183.992 155.536C184.032 155.495 184.055 155.44 184.055 155.383V151.605L185.173 150.628L189.003 155.519C189.024 155.545 189.05 155.566 189.08 155.58C189.109 155.594 189.142 155.602 189.175 155.602H191.227C191.267 155.602 191.308 155.59 191.342 155.569C191.377 155.547 191.405 155.516 191.423 155.48C191.441 155.443 191.448 155.402 191.444 155.361C191.439 155.321 191.424 155.282 191.398 155.25L186.663 149.266L191.053 144.831C191.083 144.801 191.104 144.762 191.112 144.72C191.121 144.678 191.116 144.634 191.1 144.594C191.083 144.555 191.055 144.521 191.019 144.497C190.983 144.473 190.941 144.461 190.898 144.461H188.898C188.869 144.461 188.841 144.467 188.814 144.478C188.787 144.489 188.763 144.506 188.742 144.527L185.008 148.316L185.005 148.319C184.809 148.526 184.569 148.796 184.286 149.13L184.002 149.473L184.023 149.047C184.044 148.667 184.055 148.344 184.055 148.078V140.186C184.055 140.128 184.032 140.073 183.991 140.032C183.951 139.991 183.895 139.968 183.838 139.967L182.145 139.969ZM135.402 144.062C134.363 144.062 133.444 144.3 132.661 144.778C131.875 145.273 131.248 145.983 130.855 146.823C130.434 147.699 130.225 148.727 130.227 149.906C130.225 151.115 130.456 152.146 130.92 153C131.384 153.847 132.041 154.5 132.878 154.944C133.724 155.378 134.702 155.595 135.811 155.594C136.486 155.601 137.16 155.544 137.823 155.422C138.402 155.308 138.98 155.129 139.559 154.883C139.599 154.866 139.632 154.838 139.656 154.803C139.679 154.767 139.692 154.725 139.692 154.683V153.256C139.692 153.221 139.683 153.186 139.666 153.155C139.649 153.124 139.624 153.097 139.595 153.077C139.565 153.058 139.531 153.045 139.496 153.042C139.461 153.038 139.425 153.043 139.392 153.056C138.814 153.293 138.258 153.471 137.723 153.592C137.118 153.719 136.501 153.78 135.883 153.772C134.769 153.772 133.941 153.462 133.352 152.852C132.8 152.284 132.497 151.449 132.445 150.348H139.977C140.035 150.348 140.09 150.325 140.131 150.284C140.172 150.243 140.195 150.188 140.195 150.13V149.125C140.195 148.126 140.006 147.247 139.628 146.487C139.265 145.741 138.689 145.119 137.973 144.698C137.252 144.273 136.389 144.062 135.402 144.062ZM164.775 144.062C163.669 144.061 162.706 144.289 161.888 144.745C161.075 145.196 160.42 145.886 160.013 146.722C159.579 147.581 159.363 148.61 159.364 149.809C159.364 150.709 159.492 151.518 159.747 152.236C160.009 152.951 160.377 153.56 160.85 154.061H160.852C161.333 154.558 161.898 154.94 162.547 155.206H162.55C163.207 155.465 163.925 155.594 164.703 155.594C165.532 155.594 166.28 155.465 166.947 155.208C167.62 154.942 168.193 154.56 168.667 154.061C169.142 153.561 169.504 152.952 169.752 152.233C170.01 151.452 170.136 150.632 170.123 149.809C170.125 148.616 169.901 147.589 169.452 146.73C169.036 145.896 168.381 145.205 167.57 144.745C166.769 144.289 165.831 144.062 164.775 144.062ZM103.686 144.083C102.942 144.083 102.232 144.173 101.556 144.353C100.942 144.512 100.344 144.729 99.7719 145.003C99.7222 145.028 99.6838 145.071 99.6646 145.123C99.6455 145.176 99.647 145.233 99.6688 145.284L100.192 146.514C100.204 146.541 100.22 146.565 100.241 146.585C100.262 146.605 100.287 146.621 100.314 146.631C100.341 146.642 100.37 146.647 100.399 146.646C100.428 146.645 100.456 146.638 100.483 146.627C100.952 146.408 101.448 146.219 101.973 146.059C102.485 145.903 103.025 145.825 103.592 145.825C104.317 145.825 104.845 146 105.214 146.328C105.564 146.641 105.767 147.217 105.767 148.109V148.555L104.036 148.625C102.195 148.677 100.806 148.989 99.8625 149.597C98.9219 150.203 98.4297 151.112 98.4297 152.241C98.4297 152.981 98.586 153.612 98.9157 154.116L98.9172 154.119C99.2506 154.618 99.6995 154.989 100.264 155.233C100.83 155.473 101.467 155.593 102.177 155.592C102.84 155.593 103.408 155.526 103.88 155.389C104.356 155.245 104.776 155.035 105.141 154.758L105.142 154.756C105.419 154.541 105.675 154.256 105.931 153.967L106.192 155.225C106.203 155.274 106.23 155.317 106.268 155.348C106.307 155.379 106.355 155.397 106.405 155.397H107.647C107.704 155.396 107.758 155.373 107.798 155.333C107.839 155.293 107.862 155.238 107.863 155.181V147.903C107.863 146.609 107.523 145.622 106.816 144.997C106.109 144.375 105.058 144.083 103.686 144.083ZM95.6188 144.262C95.0573 144.262 94.5422 144.367 94.0735 144.575C93.6193 144.781 93.2183 145.059 92.8703 145.409C92.6407 145.637 92.4672 145.906 92.2828 146.167L92.1422 144.655C92.1368 144.601 92.1116 144.551 92.0715 144.514C92.0314 144.478 91.9792 144.458 91.925 144.458H90.5094C90.4514 144.458 90.3957 144.481 90.3547 144.522C90.3137 144.563 90.2907 144.619 90.2907 144.677V155.38C90.2907 155.438 90.3137 155.493 90.3547 155.534C90.3957 155.575 90.4514 155.598 90.5094 155.598H92.2219C92.2799 155.598 92.3356 155.575 92.3766 155.534C92.4176 155.493 92.4407 155.438 92.4407 155.38V149.641C92.4407 149.11 92.5214 148.635 92.6828 148.214C92.8302 147.811 93.0553 147.44 93.3453 147.123L93.3469 147.12C93.6271 146.818 93.9511 146.589 94.3188 146.431H94.3203C94.6953 146.267 95.0943 146.184 95.5172 146.184C95.9213 146.185 96.3239 146.233 96.7172 146.325C96.7465 146.332 96.777 146.332 96.8066 146.327C96.8361 146.321 96.8643 146.31 96.8892 146.293C96.9142 146.276 96.9353 146.254 96.9514 146.229C96.9676 146.204 96.9782 146.175 96.9828 146.145L97.2 144.641C97.2075 144.586 97.194 144.53 97.1621 144.485C97.1302 144.44 97.0823 144.408 97.0282 144.397C96.8024 144.354 96.5744 144.324 96.3453 144.306C96.1039 144.281 95.8615 144.268 95.6188 144.266M116.356 144.266C115.857 144.266 115.385 144.334 114.939 144.47C114.503 144.604 114.092 144.81 113.723 145.08C113.47 145.274 113.245 145.503 113.055 145.759L112.867 144.642C112.858 144.591 112.832 144.545 112.792 144.512C112.753 144.479 112.703 144.461 112.652 144.461H111.277C111.219 144.461 111.164 144.485 111.123 144.526C111.082 144.567 111.059 144.622 111.059 144.68V155.383C111.059 155.441 111.082 155.496 111.123 155.537C111.164 155.579 111.22 155.602 111.278 155.602H112.981C113.039 155.601 113.094 155.577 113.134 155.536C113.174 155.495 113.197 155.44 113.197 155.383V149.719C113.199 148.896 113.294 148.214 113.483 147.672C113.675 147.13 113.972 146.737 114.381 146.472C114.788 146.209 115.342 146.067 116.059 146.067C116.559 146.067 116.955 146.161 117.255 146.333L117.259 146.334C117.567 146.502 117.791 146.745 117.944 147.091L117.945 147.094C118.108 147.44 118.19 147.891 118.192 148.448V155.384C118.193 155.442 118.216 155.497 118.256 155.537C118.297 155.578 118.352 155.601 118.409 155.602H120.103C120.161 155.601 120.215 155.577 120.256 155.536C120.296 155.495 120.319 155.44 120.319 155.383V149.395C120.319 148.261 120.559 147.433 121.009 146.887C121.452 146.348 122.164 146.067 123.213 146.067C123.944 146.067 124.452 146.267 124.795 146.65L124.797 146.652C125.145 147.028 125.334 147.616 125.334 148.448V155.384C125.335 155.442 125.358 155.497 125.399 155.538C125.44 155.579 125.495 155.602 125.553 155.602H127.234C127.292 155.602 127.348 155.579 127.389 155.537C127.43 155.496 127.453 155.441 127.453 155.383V148.37C127.453 146.977 127.13 145.925 126.442 145.256C125.763 144.587 124.764 144.266 123.489 144.266C122.694 144.266 121.959 144.426 121.284 144.745H121.283C120.678 145.027 120.202 145.469 119.825 146.017C119.561 145.477 119.133 145.033 118.602 144.75C117.987 144.425 117.239 144.264 116.356 144.266ZM177.844 144.266C177.282 144.266 176.767 144.37 176.298 144.578C175.844 144.784 175.443 145.062 175.095 145.412C174.866 145.641 174.692 145.909 174.508 146.17L174.367 144.658C174.362 144.604 174.337 144.554 174.296 144.518C174.256 144.481 174.204 144.461 174.15 144.461H172.734C172.676 144.461 172.621 144.484 172.58 144.525C172.539 144.566 172.516 144.622 172.516 144.68V155.383C172.516 155.441 172.539 155.496 172.58 155.537C172.621 155.579 172.676 155.602 172.734 155.602H174.447C174.505 155.602 174.561 155.579 174.602 155.537C174.643 155.496 174.666 155.441 174.666 155.383V149.641C174.666 149.11 174.746 148.635 174.908 148.214C175.07 147.781 175.291 147.417 175.57 147.123V147.12C175.842 146.824 176.174 146.589 176.544 146.431C176.919 146.267 177.319 146.184 177.742 146.184C178.146 146.185 178.549 146.233 178.942 146.325C178.972 146.332 179.002 146.332 179.032 146.327C179.061 146.321 179.089 146.31 179.114 146.293C179.139 146.276 179.16 146.254 179.176 146.229C179.193 146.204 179.203 146.175 179.208 146.145L179.425 144.641C179.433 144.586 179.419 144.53 179.387 144.485C179.355 144.44 179.307 144.408 179.253 144.397C179.027 144.354 178.799 144.324 178.57 144.306C178.329 144.281 178.086 144.268 177.844 144.266ZM141.991 144.462C141.957 144.463 141.924 144.471 141.895 144.486C141.865 144.501 141.839 144.523 141.819 144.55C141.799 144.577 141.785 144.607 141.779 144.64C141.773 144.673 141.774 144.707 141.783 144.739L144.883 155.445C144.896 155.49 144.924 155.53 144.961 155.558C144.998 155.586 145.044 155.601 145.091 155.602H147.009C147.055 155.601 147.099 155.587 147.136 155.561C147.173 155.535 147.201 155.498 147.216 155.455L149.308 149.255C149.403 148.99 149.49 148.722 149.569 148.452C149.644 148.185 149.712 147.929 149.773 147.687L149.775 147.683C149.822 147.52 149.856 147.378 149.894 147.233C149.931 147.378 149.97 147.519 150.011 147.683L150.014 147.689L150.23 148.431L150.231 148.437L150.488 149.22L152.488 155.452C152.502 155.495 152.53 155.533 152.567 155.56C152.604 155.587 152.649 155.602 152.695 155.602H154.675C154.722 155.601 154.768 155.586 154.806 155.558C154.843 155.53 154.871 155.49 154.884 155.445L157.994 144.739C158.003 144.707 158.004 144.673 157.998 144.64C157.991 144.607 157.978 144.577 157.958 144.55C157.938 144.523 157.912 144.501 157.882 144.486C157.852 144.471 157.819 144.463 157.786 144.462H156.052C156.004 144.463 155.958 144.478 155.921 144.507C155.883 144.535 155.855 144.575 155.842 144.62L154.202 150.531H154.2L153.881 151.725V151.728C153.788 152.106 153.704 152.454 153.631 152.772C153.546 152.442 153.455 152.115 153.356 151.789L153.355 151.786C153.261 151.457 153.161 151.13 153.055 150.805L151.055 144.612C151.04 144.569 151.013 144.531 150.976 144.504C150.939 144.477 150.894 144.463 150.848 144.462H149.011C148.965 144.463 148.921 144.477 148.884 144.504C148.847 144.53 148.819 144.568 148.805 144.611L146.733 150.814C146.655 151.043 146.579 151.29 146.505 151.553C146.429 151.809 146.356 152.069 146.286 152.331V152.334L146.166 152.834L146.155 152.778C146.085 152.436 145.999 152.077 145.897 151.698L145.895 151.694C145.798 151.305 145.696 150.917 145.588 150.531L143.966 144.622C143.953 144.576 143.925 144.536 143.888 144.507C143.85 144.478 143.804 144.463 143.756 144.462H141.991ZM135.381 145.828C135.994 145.828 136.475 145.958 136.841 146.203H136.842C137.217 146.447 137.491 146.784 137.673 147.236L137.675 147.241C137.842 147.633 137.928 148.1 137.956 148.617H132.513C132.638 147.767 132.908 147.086 133.363 146.611C133.861 146.087 134.516 145.828 135.381 145.828ZM164.734 145.869C165.497 145.869 166.097 146.031 166.552 146.339C167.013 146.652 167.353 147.094 167.578 147.683C167.807 148.27 167.922 148.981 167.923 149.814C167.922 150.653 167.808 151.372 167.58 151.973C167.385 152.526 167.022 153.002 166.541 153.336C166.083 153.652 165.492 153.816 164.744 153.816C163.989 153.816 163.394 153.652 162.938 153.336C162.462 152.999 162.103 152.523 161.909 151.973C161.68 151.372 161.565 150.653 161.564 149.814C161.564 148.542 161.828 147.572 162.331 146.886L162.333 146.884C162.836 146.209 163.609 145.869 164.734 145.869ZM105.748 150.136V150.897C105.748 151.909 105.453 152.622 104.872 153.103C104.278 153.595 103.519 153.845 102.558 153.845C101.948 153.845 101.483 153.708 101.139 153.45C100.806 153.2 100.639 152.831 100.639 152.266C100.639 151.62 100.881 151.164 101.405 150.812C101.917 150.472 102.875 150.248 104.259 150.197L105.748 150.136Z" fill="#212121"/>
</svg>
