<svg width="200" height="200" viewBox="0 0 200 200" fill="none" xmlns="http://www.w3.org/2000/svg">
<path d="M88.3438 25H113.125V138.556C102.548 140.736 91.7803 141.856 80.9812 141.9C50.7187 141.869 34.9688 128.35 34.9688 102.388C34.9688 77.3875 51.675 61.1375 77.5688 61.1375C81.2001 61.0706 84.8241 61.4911 88.3438 62.3875V25ZM88.3438 82.1375C85.6494 81.2498 82.8237 80.8271 79.9875 80.8875C67.4875 80.8875 60.2188 88.5313 60.2188 101.925C60.2188 114.969 67.1375 122.169 79.8312 122.169C82.6805 122.176 85.5262 121.967 88.3438 121.544V82.1688V82.1375Z" fill="#44B78B"/>
<path d="M152.5 62.8688V119.744C152.5 139.325 151.031 148.737 146.731 156.856C142.341 165.11 135.166 171.539 126.481 175L103.494 164.169C111.847 161.313 118.843 155.458 123.125 147.738C126.663 140.731 127.781 132.613 127.781 111.256V62.8688H152.5ZM127.756 25.125H152.531V50.3H127.756V25.125Z" fill="#44B78B"/>
</svg>
