<svg width="24" height="24" viewBox="0 0 24 24" fill="none" xmlns="http://www.w3.org/2000/svg">
<g clip-path="url(#clip0_2039_5)">
<path d="M8.29102 5.69604L7.03302 4.11604L8.70102 2.56604L9.95901 4.14604L8.29102 5.69604ZM10.631 7.74404L10.836 6.19404L5.42402 6.16404L5.22002 7.71404L9.16502 7.73604L7.80002 17.852L6.96102 18.622L6.55602 18.618C6.94102 19.021 7.35902 19.428 7.79202 19.832L9.17002 18.567L10.628 7.74404H10.631ZM3.87402 14.998C3.87402 14.998 6.79902 14.53 7.41402 15.378C7.41402 15.378 5.65802 12.453 3.23002 12.453C3.23002 12.379 3.13202 11.1 8.37602 9.84404L8.58202 8.31404C0.236015 9.42204 -5.70498 12.636 8.84702 21.434C8.84702 21.434 3.17202 16.724 3.87402 14.998ZM13 6.22304L11.216 7.86004L10.69 11.897L12.006 13.535L17.681 13.593L18.237 14.295L17.857 16.928L17.144 17.613L17.126 17.63H19.319L19.875 13.593L18.53 11.955L12.884 11.897L12.328 11.195L12.679 8.56204L13.41 7.86004L18.442 7.91804L18.998 8.59104L18.822 9.82004H20.372L20.636 7.91804L19.319 6.25104L13.001 6.22104L13 6.22304ZM15.882 18.131L16.427 17.608L12.122 17.573L11.157 16.403L9.89902 17.573L11.245 19.24L17.563 19.27L18.783 18.131H15.882ZM13.13 8.96504C14.667 8.74555 16.2087 8.56083 17.754 8.41104L13.609 8.36304L13.152 8.80304L13.13 8.96504ZM21.156 7.80904L21.131 7.98804L21.113 8.12004C22.033 8.05004 22.983 7.98104 24 7.92004C24 7.92004 22.887 7.85204 21.156 7.80904ZM1.91402 18.392L3.31802 20.176L5.97802 20.196C4.68468 19.3214 3.58602 18.4884 2.68202 17.697L1.91402 18.392Z" fill="white"/>
</g>
<defs>
<clipPath id="clip0_2039_5">
<rect width="24" height="24" fill="white"/>
</clipPath>
</defs>
</svg>
