<svg width="150" height="150" viewBox="0 0 150 150" fill="none" xmlns="http://www.w3.org/2000/svg">
<g clip-path="url(#clip0_770_15)">
<path d="M114.844 0H35.1562C15.74 0 0 15.74 0 35.1562V114.844C0 134.26 15.74 150 35.1562 150H114.844C134.26 150 150 134.26 150 114.844V35.1562C150 15.74 134.26 0 114.844 0Z" fill="#F0DB4F"/>
<path d="M39.4405 125.351L50.919 118.404C53.1339 122.33 55.1483 125.653 59.9806 125.653C64.6124 125.653 67.5327 123.841 67.5327 116.793V68.8646H81.6292V116.992C81.6292 131.592 73.071 138.238 60.5847 138.238C49.3083 138.238 42.7628 132.398 39.4399 125.35M89.2856 123.84L100.763 117.195C103.785 122.129 107.712 125.754 114.659 125.754C120.5 125.754 124.224 122.834 124.224 118.806C124.224 113.973 120.398 112.261 113.954 109.443L110.43 107.931C100.26 103.603 93.5138 98.165 93.5138 86.6865C93.5138 76.1139 101.569 68.0584 114.156 68.0584C123.117 68.0584 129.561 71.1803 134.192 79.3359L123.217 86.3842C120.8 82.0547 118.184 80.3432 114.156 80.3432C110.027 80.3432 107.409 82.9611 107.409 86.3842C107.409 90.6129 110.027 92.325 116.068 94.9436L119.592 96.4535C131.574 101.589 138.32 106.824 138.32 118.604C138.32 131.292 128.352 138.239 114.961 138.239C101.872 138.239 93.4136 131.996 89.2856 123.84Z" fill="#323330"/>
</g>
<defs>
<clipPath id="clip0_770_15">
<rect width="150" height="150" fill="white"/>
</clipPath>
</defs>
</svg>
