<svg width="200" height="200" viewBox="0 0 200 200" fill="none" xmlns="http://www.w3.org/2000/svg">
<path d="M99.9999 187.5C97.6391 187.501 95.3196 186.88 93.2749 185.7L71.8749 173.031C68.6812 171.244 70.2374 170.612 71.2937 170.244C74.6911 169.196 77.9436 167.726 80.9749 165.869C81.2283 165.749 81.5082 165.698 81.7874 165.719C82.0667 165.739 82.3358 165.832 82.5687 165.987L99.0124 175.756C99.3186 175.918 99.6598 176.003 100.006 176.003C100.353 176.003 100.694 175.918 101 175.756L165.125 138.744C165.426 138.565 165.676 138.311 165.848 138.006C166.02 137.701 166.109 137.356 166.106 137.006V62.9687C166.107 62.6132 166.016 62.2636 165.842 61.9537C165.668 61.6438 165.416 61.3841 165.112 61.1999L100.987 24.2187C100.686 24.0466 100.344 23.9561 99.9968 23.9561C99.6494 23.9561 99.308 24.0466 99.0062 24.2187L34.9187 61.2124C34.613 61.3932 34.3592 61.6499 34.1818 61.9576C34.0044 62.2653 33.9095 62.6136 33.9062 62.9687V136.975C33.9102 137.323 34.0052 137.665 34.1817 137.965C34.3582 138.265 34.6101 138.514 34.9124 138.687L52.4999 148.837C62.0312 153.6 67.8687 147.987 67.8687 142.35V69.2812C67.8687 68.7839 68.0662 68.307 68.4179 67.9554C68.7695 67.6037 69.2464 67.4062 69.7437 67.4062H77.8687C78.366 67.4062 78.8429 67.6037 79.1945 67.9554C79.5461 68.307 79.7437 68.7839 79.7437 69.2812V142.356C79.7437 155.075 72.8187 162.356 60.7562 162.356C55.5528 162.443 50.4315 161.052 45.9874 158.344L29.1312 148.675C27.0866 147.481 25.39 145.773 24.2102 143.721C23.0304 141.668 22.4084 139.342 22.4062 136.975V62.9687C22.3988 60.5968 23.0166 58.2647 24.1972 56.2075C25.3778 54.1502 27.0796 52.4403 29.1312 51.2499L93.2624 14.2249C95.329 13.097 97.6456 12.5059 99.9999 12.5059C102.354 12.5059 104.671 13.097 106.737 14.2249L170.862 51.2499C172.906 52.4417 174.603 54.1474 175.784 56.1976C176.965 58.2479 177.589 60.5714 177.594 62.9374V136.975C177.591 139.343 176.968 141.669 175.787 143.722C174.606 145.774 172.908 147.482 170.862 148.675L106.737 185.7C104.689 186.882 102.365 187.503 99.9999 187.5Z" fill="#83CD29"/>
<path d="M87.8375 112.206C87.8375 111.709 88.0351 111.232 88.3867 110.88C88.7383 110.529 89.2152 110.331 89.7125 110.331H98.0063C98.4494 110.333 98.8777 110.491 99.2152 110.778C99.5528 111.065 99.7776 111.463 99.85 111.9C101.1 120.344 104.85 124.6 121.806 124.6C135.313 124.6 141.069 121.544 141.069 114.375C141.069 110.244 139.438 107.175 118.444 105.119C100.894 103.381 90.0438 99.4938 90.0438 85.4688C90.0438 72.5313 100.95 64.8125 119.231 64.8125C139.775 64.8125 149.944 71.9437 151.231 87.2437C151.251 87.4992 151.218 87.7559 151.135 87.9982C151.051 88.2404 150.919 88.463 150.746 88.6521C150.574 88.8413 150.364 88.9931 150.13 89.098C149.896 89.203 149.644 89.259 149.388 89.2625H141.038C140.619 89.2566 140.214 89.1107 139.888 88.8478C139.561 88.585 139.332 88.2205 139.238 87.8125C137.244 78.9313 132.363 76.0938 119.238 76.0938C104.488 76.0938 102.775 81.2313 102.775 85.0813C102.775 89.7438 104.8 91.1063 124.713 93.7375C144.419 96.3438 153.781 100.031 153.781 113.881C153.781 127.856 142.131 135.856 121.813 135.856C93.7188 135.894 87.8375 123.012 87.8375 112.206Z" fill="#83CD29"/>
</svg>
