<svg width="255" height="255" viewBox="0 0 128 128" fill="none" xmlns="http://www.w3.org/2000/svg">
<path d="M0 64C0 82.593 28.654 97.667 64 97.667C99.346 97.667 128 82.593 128 64C128 45.407 99.345 30.333 64 30.333C28.654 30.333 0 45.407 0 64Z" fill="url(#paint0_radial_526_8)"/>
<path d="M64 95.167C97.965 95.167 125.5 81.212 125.5 64C125.5 46.786 97.965 32.833 64 32.833C30.035 32.833 2.5 46.786 2.5 64C2.5 81.212 30.035 95.167 64 95.167Z" fill="#777BB3"/>
<path d="M34.772 67.8639C37.565 67.8639 39.649 67.3489 40.968 66.3339C42.274 65.3279 43.175 63.5869 43.648 61.1589C44.088 58.8889 43.92 57.3049 43.148 56.4489C42.36 55.5749 40.655 55.1319 38.081 55.1319H33.617L31.144 67.8639H34.772ZM20.173 83.5469C20.0706 83.5468 19.9695 83.524 19.8769 83.4801C19.7844 83.4363 19.7027 83.3725 19.6377 83.2934C19.5727 83.2142 19.526 83.1217 19.501 83.0224C19.476 82.923 19.4733 82.8194 19.493 82.7189L26.05 48.9809C26.081 48.8232 26.1657 48.6811 26.2897 48.5788C26.4137 48.4765 26.5693 48.4204 26.73 48.4199H40.864C45.306 48.4199 48.612 49.6259 50.691 52.0049C52.779 54.3949 53.425 57.7389 52.608 61.9399C52.275 63.6509 51.703 65.2399 50.908 66.6639C50.0805 68.1286 49.0245 69.4519 47.78 70.5839C46.249 72.0159 44.516 73.0559 42.633 73.6669C40.781 74.2709 38.401 74.5769 35.563 74.5769H29.839L28.205 82.9849C28.1742 83.1432 28.0893 83.2858 27.9649 83.3883C27.8404 83.4908 27.6843 83.5469 27.523 83.5469H20.173Z" fill="black"/>
<path d="M34.19 55.8261H38.081C41.188 55.8261 42.267 56.5081 42.634 56.9151C43.241 57.5891 43.357 59.0121 42.965 61.0271C42.526 63.2841 41.712 64.8851 40.545 65.7831C39.351 66.7031 37.407 67.1691 34.772 67.1691H31.986L34.191 55.8271L34.19 55.8261ZM40.864 47.7261H26.731C26.4087 47.7261 26.0965 47.8381 25.8476 48.043C25.5988 48.2479 25.4289 48.5328 25.367 48.8491L18.81 82.5881C18.7713 82.7891 18.7774 82.9961 18.828 83.1944C18.8785 83.3928 18.9723 83.5775 19.1025 83.7354C19.2327 83.8933 19.3962 84.0205 19.5812 84.1079C19.7663 84.1953 19.9684 84.2408 20.173 84.2411H27.523C27.8453 84.2408 28.1574 84.1285 28.4061 83.9235C28.6547 83.7185 28.8244 83.4334 28.886 83.1171L30.411 75.2711H35.562C38.474 75.2711 40.926 74.9531 42.849 74.3271C44.826 73.6851 46.645 72.5961 48.255 71.0901C49.5513 69.9093 50.6514 68.5297 51.514 67.0031C52.345 65.5161 52.943 63.8561 53.289 62.0721C54.149 57.6491 53.45 54.1081 51.213 51.5481C48.997 49.0111 45.515 47.7251 40.864 47.7251V47.7261ZM30.301 68.5571H34.772C37.735 68.5571 39.942 68.0001 41.392 66.8821C42.843 65.7661 43.82 63.9021 44.33 61.2911C44.815 58.7831 44.594 57.0141 43.665 55.9831C42.734 54.9531 40.874 54.4371 38.081 54.4371H33.045L30.301 68.5571ZM40.865 49.1121C45.117 49.1121 48.218 50.2291 50.168 52.4601C52.118 54.6921 52.704 57.8071 51.928 61.8061C51.606 63.4541 51.065 64.9601 50.303 66.3241C49.539 67.6901 48.543 68.9381 47.312 70.0711C45.844 71.4441 44.215 72.4231 42.42 73.0061C40.626 73.5901 38.34 73.8811 35.563 73.8811H29.267L27.524 82.8511H20.174L26.732 49.1121H40.865Z" fill="white"/>
<path d="M69.4591 74.577C69.3566 74.5771 69.2553 74.5545 69.1626 74.5109C69.0699 74.4672 68.988 74.4036 68.9228 74.3245C68.8576 74.2454 68.8107 74.1529 68.7855 74.0536C68.7603 73.9542 68.7574 73.8505 68.7771 73.75L71.6771 58.8219C71.9541 57.4019 71.8861 56.384 71.4871 55.952C71.2421 55.689 70.5081 55.248 68.3371 55.248H63.0811L59.4351 74.0159C59.4038 74.174 59.3185 74.3162 59.194 74.4184C59.0694 74.5205 58.9132 74.5762 58.7521 74.5759H51.4621C51.3597 74.576 51.2585 74.5535 51.1658 74.5099C51.0731 74.4663 50.9913 74.4028 50.926 74.3238C50.8607 74.2449 50.8137 74.1525 50.7883 74.0533C50.7629 73.9541 50.7598 73.8505 50.7791 73.75L57.3371 40.011C57.3681 39.8529 57.4531 39.7105 57.5775 39.6082C57.7019 39.5059 57.858 39.4499 58.0191 39.45H65.3091C65.4115 39.4499 65.5126 39.4724 65.6053 39.516C65.698 39.5596 65.7799 39.6231 65.8451 39.7021C65.9104 39.781 65.9574 39.8734 65.9828 39.9726C66.0082 40.0718 66.0114 40.1754 65.9921 40.276L64.4101 48.4199H70.0631C74.3701 48.4199 77.2901 49.178 78.9911 50.741C80.7241 52.334 81.2661 54.8809 80.5991 58.3139L77.5481 74.0159C77.5168 74.1738 77.4317 74.316 77.3073 74.4181C77.183 74.5202 77.027 74.576 76.8661 74.5759H69.4591V74.577Z" fill="black"/>
<path d="M65.3101 38.7549H58.0191C57.6966 38.755 57.3842 38.8671 57.1354 39.0722C56.8866 39.2772 56.7168 39.5624 56.6551 39.8789L50.0981 73.6169C50.0592 73.8179 50.0652 74.0251 50.1156 74.2235C50.1661 74.422 50.2598 74.6068 50.3901 74.7649C50.5203 74.9229 50.6838 75.0502 50.869 75.1377C51.0541 75.2251 51.2563 75.2706 51.4611 75.2709H58.7521C59.0745 75.2708 59.3869 75.1586 59.6357 74.9536C59.8845 74.7485 60.0544 74.4634 60.1161 74.1469L63.6531 55.9419H68.3351C70.5031 55.9419 70.9591 56.4049 70.9761 56.4259C71.1081 56.5659 71.2811 57.2209 70.9951 58.6899L68.0951 73.6169C68.0561 73.818 68.0622 74.0252 68.1127 74.2238C68.1632 74.4223 68.257 74.6072 68.3874 74.7652C68.5177 74.9233 68.6814 75.0506 68.8666 75.138C69.0519 75.2254 69.2542 75.2708 69.4591 75.2709H76.8671C77.1893 75.2706 77.5015 75.1583 77.7501 74.9533C77.9987 74.7482 78.1684 74.4632 78.2301 74.1469L81.2811 58.4469C81.9961 54.7609 81.3841 51.9969 79.4611 50.2299C77.6251 48.5439 74.5511 47.7249 70.0631 47.7249H65.2531L66.6741 40.4099C66.7131 40.2087 66.7072 40.0013 66.6568 39.8027C66.6063 39.604 66.5125 39.419 66.3822 39.2608C66.2518 39.1027 66.0881 38.9753 65.9028 38.8878C65.7174 38.8004 65.515 38.755 65.3101 38.7549ZM65.3101 40.1449L63.5671 49.1129H70.0631C74.1501 49.1129 76.9701 49.8269 78.5201 51.2529C80.0731 52.6789 80.5371 54.9879 79.9181 58.1829L76.8661 73.8819H69.4591L72.3601 58.9539C72.6901 57.2559 72.5681 56.0979 71.9951 55.4799C71.4221 54.8629 70.2021 54.5539 68.3371 54.5539H62.5081L58.7521 73.8809H51.4601L58.0181 40.1419H65.3101V40.1449Z" fill="white"/>
<path d="M92.136 67.8639C94.929 67.8639 97.014 67.3489 98.334 66.3339C99.638 65.3279 100.54 63.5869 101.013 61.1589C101.453 58.8889 101.286 57.3049 100.513 56.4489C99.725 55.5749 98.02 55.1319 95.446 55.1319H90.983L88.508 67.8639H92.136ZM77.54 83.5469C77.4374 83.5471 77.3361 83.5245 77.2433 83.4808C77.1505 83.4371 77.0685 83.3733 77.0033 83.2942C76.9381 83.215 76.8912 83.1223 76.8661 83.0228C76.841 82.9234 76.8382 82.8196 76.858 82.7189L83.415 48.9809C83.4461 48.8229 83.5311 48.6805 83.6555 48.5782C83.7799 48.4759 83.936 48.4199 84.097 48.4199H98.23C102.672 48.4199 105.978 49.6259 108.056 52.0049C110.145 54.3949 110.79 57.7389 109.973 61.9399C109.661 63.5947 109.087 65.1893 108.274 66.6639C107.446 68.1284 106.39 69.4517 105.146 70.5839C103.616 72.0159 101.881 73.0559 99.999 73.6669C98.147 74.2709 95.767 74.5769 92.928 74.5769H87.205L85.572 82.9849C85.5411 83.1433 85.4561 83.2861 85.3315 83.3886C85.2068 83.4911 85.0504 83.5471 84.889 83.5469H77.54Z" fill="black"/>
<path d="M91.555 55.8261H95.446C98.553 55.8261 99.632 56.5081 99.998 56.9151C100.608 57.5891 100.722 59.0121 100.331 61.0271C99.891 63.2841 99.077 64.8851 97.91 65.7831C96.715 66.7031 94.771 67.1691 92.137 67.1691H89.351L91.555 55.8261ZM98.229 47.7261H84.096C83.7739 47.7264 83.4619 47.8385 83.2132 48.0433C82.9646 48.2482 82.7949 48.533 82.733 48.8491L76.175 82.5881C76.1363 82.7892 76.1424 82.9963 76.193 83.1947C76.2436 83.3931 76.3375 83.5779 76.4678 83.7358C76.5981 83.8937 76.7617 84.0209 76.9469 84.1082C77.1321 84.1956 77.3343 84.241 77.539 84.2411H84.889C85.2113 84.2408 85.5234 84.1285 85.772 83.9235C86.0207 83.7185 86.1903 83.4334 86.252 83.1171L87.777 75.2711H92.927C95.838 75.2711 98.291 74.9531 100.213 74.3271C102.191 73.6851 104.01 72.5961 105.621 71.0891C106.917 69.9086 108.017 68.5293 108.879 67.0031C109.711 65.5161 110.307 63.8561 110.654 62.0721C111.514 57.6491 110.816 54.1081 108.578 51.5481C106.362 49.0111 102.881 47.7251 98.228 47.7251L98.229 47.7261ZM87.666 68.5571H92.136C95.1 68.5571 97.306 68.0001 98.758 66.8821C100.208 65.7661 101.186 63.9021 101.694 61.2911C102.181 58.7831 101.96 57.0141 101.029 55.9831C100.099 54.9531 98.238 54.4371 95.446 54.4371H90.411L87.666 68.5571ZM98.229 49.1121C102.48 49.1121 105.583 50.2291 107.532 52.4601C109.482 54.6921 110.069 57.8071 109.291 61.8061C108.971 63.4541 108.429 64.9601 107.667 66.3241C106.904 67.6901 105.907 68.9381 104.675 70.0711C103.208 71.4441 101.578 72.4231 99.783 73.0061C97.99 73.5901 95.705 73.8811 92.927 73.8811H86.632L84.887 82.8511H77.537L84.095 49.1121H98.229Z" fill="white"/>
<defs>
<radialGradient id="paint0_radial_526_8" cx="0" cy="0" r="1" gradientUnits="userSpaceOnUse" gradientTransform="translate(38.426 42.169) scale(84.0414)">
<stop stop-color="#AEB2D5"/>
<stop offset="0.3" stop-color="#AEB2D5"/>
<stop offset="0.75" stop-color="#484C89"/>
<stop offset="1" stop-color="#484C89"/>
</radialGradient>
</defs>
</svg>
