<svg width="200" height="207" viewBox="0 0 200 207" fill="none" xmlns="http://www.w3.org/2000/svg">
<path d="M199.225 123.505C198.026 119.873 194.884 117.343 190.822 116.736C188.906 116.45 186.713 116.572 184.116 117.107C179.591 118.041 176.234 118.396 173.784 118.465C183.032 102.852 190.552 85.0469 194.88 68.2868C201.88 41.186 198.14 28.8399 193.769 23.2555C182.201 8.47427 165.323 0.533641 144.963 0.290673C134.101 0.15786 124.566 2.30239 119.591 3.84458C114.96 3.02739 109.98 2.57114 104.755 2.48677C94.9609 2.33052 86.307 4.46567 78.9125 8.85395C74.8188 7.46958 68.2484 5.51802 60.6609 4.2727C42.8156 1.34302 28.4328 3.62583 17.9125 11.0579C5.17344 20.0563 -0.732028 35.6907 0.36016 57.5266C0.707035 64.4594 4.58516 85.5532 10.6914 105.558C14.2008 117.056 17.943 126.605 21.8141 133.941C27.3039 144.343 33.1781 150.469 39.7727 152.669C43.4688 153.9 50.1844 154.763 57.2477 148.88C58.143 149.964 59.3375 151.041 60.9227 152.042C62.9359 153.312 65.3977 154.349 67.8563 154.964C76.7164 157.179 85.0156 156.625 92.0961 153.52C92.1399 154.78 92.1734 155.983 92.2016 157.022C92.2484 158.707 92.2953 160.359 92.357 161.905C92.7766 172.353 93.4875 180.477 95.5938 186.162C95.7094 186.474 95.8648 186.951 96.0289 187.456C97.0797 190.673 98.8367 196.059 103.307 200.277C107.936 204.647 113.535 205.987 118.663 205.987C121.235 205.987 123.689 205.649 125.841 205.188C133.513 203.544 142.227 201.039 148.53 192.064C154.489 183.58 157.386 170.801 157.91 150.666C157.978 150.096 158.041 149.552 158.101 149.034L158.226 147.97L159.63 148.094L159.991 148.118C167.805 148.474 177.36 146.817 183.228 144.091C187.865 141.94 202.723 134.095 199.225 123.505Z" fill="black"/>
<path d="M185.864 125.564C162.63 130.357 161.032 122.491 161.032 122.491C185.563 86.0898 195.819 39.8843 186.97 28.5758C162.826 -2.2719 121.033 12.3172 120.335 12.6953L120.111 12.7359C115.52 11.7828 110.384 11.2156 104.609 11.1211C94.0969 10.9492 86.1219 13.8773 80.0703 18.4664C80.0703 18.4664 5.51563 -12.2477 8.9836 57.0945C9.7211 71.8461 30.1273 168.714 54.4664 139.455C63.3625 128.756 71.9586 119.71 71.9586 119.71C76.2274 122.546 81.3383 123.993 86.6961 123.473L87.1125 123.12C86.9828 124.448 87.0422 125.748 87.2789 127.286C81.0086 134.291 82.8516 135.521 70.3172 138.102C57.6336 140.716 65.0844 145.369 69.9492 146.586C75.8469 148.06 89.4906 150.149 98.7094 137.244L98.3422 138.716C100.798 140.684 102.523 151.516 102.234 161.335C101.945 171.154 101.752 177.895 103.688 183.161C105.624 188.427 107.553 200.274 124.031 196.744C137.799 193.793 144.934 186.147 145.927 173.392C146.631 164.325 148.226 165.666 148.326 157.559L149.605 153.721C151.079 141.43 149.839 137.464 158.321 139.309L160.384 139.49C166.626 139.773 174.798 138.485 179.594 136.256C189.92 131.464 196.045 123.462 185.863 125.564H185.864Z" fill="#336791"/>
<path d="M84.4344 63.6913C82.3406 63.3999 80.4445 63.6694 79.4852 64.396C78.9461 64.8046 78.7789 65.278 78.7336 65.6038C78.6133 66.4671 79.218 67.4218 79.5898 67.914C80.6414 69.3077 82.1773 70.2655 83.6977 70.4764C83.918 70.5072 84.1372 70.5223 84.3555 70.5218C86.8906 70.5218 89.1961 68.5475 89.3992 67.0905C89.6531 65.2655 87.0039 64.0483 84.4344 63.6913ZM153.797 63.7491C153.597 62.3186 151.052 61.9108 148.636 62.2468C146.223 62.5827 143.884 63.6718 144.08 65.1054C144.236 66.2202 146.249 68.1233 148.632 68.1233C148.834 68.1233 149.037 68.1093 149.241 68.0811C150.832 67.8608 151.999 66.8507 152.554 66.2686C153.398 65.3811 153.887 64.3921 153.797 63.7491Z" fill="white"/>
<path d="M193.595 125.02C192.709 122.341 189.858 121.479 185.12 122.457C171.054 125.36 166.016 123.349 164.363 122.131C175.296 105.475 184.291 85.3407 189.143 66.5555C191.441 57.6571 192.711 49.393 192.815 42.6571C192.93 35.2641 191.67 29.8313 189.073 26.5126C178.603 13.1336 163.236 5.95708 144.634 5.76021C131.846 5.61646 121.041 8.88911 118.947 9.80943C114.536 8.71255 109.727 8.03911 104.492 7.95318C94.8922 7.79771 86.5937 10.0961 79.7234 14.7813C76.7391 13.6704 69.0266 11.0227 59.5945 9.50317C43.2883 6.87818 30.3305 8.86724 21.0836 15.418C10.05 23.2352 4.95625 37.2086 5.94297 56.9493C6.275 63.5907 10.0594 84.0219 16.0312 103.588C23.8922 129.341 32.4375 143.92 41.4281 146.92C42.4805 147.27 43.6937 147.516 45.032 147.516C48.3117 147.516 52.3328 146.038 56.5164 141.008C61.6192 134.886 66.8977 128.914 72.3453 123.097C75.8797 124.994 79.7625 126.053 83.7336 126.159C83.7419 126.264 83.751 126.367 83.7609 126.47C83.0774 127.286 82.408 128.112 81.7531 128.951C79.0016 132.444 78.4289 133.171 69.5719 134.995C67.0523 135.515 60.3609 136.894 60.2625 141.584C60.1562 146.709 68.1727 148.862 69.0859 149.09C72.2687 149.887 75.3352 150.28 78.2594 150.28C85.3711 150.28 91.6297 147.942 96.6313 143.42C96.4773 161.69 97.2391 179.693 99.4328 185.178C101.23 189.669 105.619 200.643 119.483 200.642C121.517 200.642 123.756 200.406 126.22 199.877C140.689 196.776 146.973 190.381 149.403 176.281C150.704 168.746 152.936 150.753 153.986 141.102C156.202 141.793 159.054 142.109 162.137 142.109C168.569 142.109 175.99 140.742 180.644 138.582C185.872 136.154 195.306 130.196 193.595 125.02ZM159.137 59.8008C159.09 62.65 158.698 65.2368 158.282 67.9368C157.834 70.8407 157.372 73.843 157.255 77.4875C157.141 81.0344 157.584 84.7219 158.012 88.2883C158.877 95.4915 159.766 102.907 156.327 110.224C155.757 109.212 155.248 108.166 154.804 107.092C154.377 106.056 153.448 104.392 152.163 102.089C147.164 93.1235 135.457 72.1282 141.45 63.561C143.235 61.011 147.766 58.3891 159.137 59.8008ZM145.353 11.5297C162.02 11.8977 175.205 18.1329 184.539 30.061C191.698 39.2102 183.815 80.8407 160.992 116.756C160.763 116.464 160.532 116.173 160.3 115.883L160.011 115.522C165.909 105.782 164.755 96.1454 163.729 87.6016C163.307 84.0954 162.909 80.7836 163.01 77.6727C163.115 74.3758 163.551 71.5477 163.973 68.8133C164.491 65.4438 165.018 61.9571 164.873 57.8469C164.981 57.4157 165.025 56.9063 164.968 56.3016C164.597 52.3602 160.097 40.5641 150.925 29.8876C145.908 24.0477 138.591 17.5126 128.602 13.1047C132.898 12.2141 138.774 11.3836 145.353 11.5297ZM52.0891 137.327C47.4797 142.869 44.2969 141.806 43.25 141.458C36.4297 139.183 28.5156 124.767 21.5383 101.908C15.5008 82.1282 11.9727 62.2383 11.693 56.661C10.8117 39.0219 15.0875 26.729 24.4023 20.1227C39.5617 9.37271 64.4852 15.8071 74.5 19.0704C74.3562 19.2126 74.2062 19.3454 74.0641 19.4899C57.6297 36.0868 58.0195 64.443 58.0602 66.1766C58.0586 66.8454 58.1148 67.7922 58.1914 69.0946C58.4742 73.8641 59.0008 82.7407 57.5945 92.793C56.2883 102.134 59.168 111.277 65.4937 117.878C66.1427 118.555 66.8251 119.198 67.5383 119.806C64.7227 122.822 58.6031 129.491 52.0891 137.327ZM69.6508 113.895C64.5523 108.574 62.2367 101.174 63.2969 93.5899C64.7812 82.9711 64.2336 73.7227 63.9391 68.754C63.8977 68.0586 63.8609 67.4493 63.8398 66.9688C66.2406 64.8399 77.3664 58.879 85.3008 60.6969C88.9211 61.5258 91.1273 63.9915 92.0445 68.2321C96.7914 90.1875 92.6727 99.3383 89.3633 106.692C88.6812 108.207 88.0367 109.639 87.4867 111.12L87.0602 112.266C85.9805 115.161 84.9758 117.853 84.3531 120.409C78.9328 120.394 73.6602 118.078 69.6508 113.894M70.4828 143.503C68.9 143.108 67.4766 142.421 66.6414 141.852C67.3391 141.523 68.5805 141.077 70.7336 140.633C81.1531 138.488 82.7625 136.974 86.2766 132.513C87.082 131.489 87.9953 130.33 89.2602 128.917L89.2617 128.916C91.1453 126.806 92.007 127.164 93.5695 127.813C94.8359 128.336 96.0695 129.923 96.5695 131.67C96.8062 132.495 97.0719 134.061 96.2023 135.28C88.8617 145.558 78.1648 145.426 70.4828 143.503ZM125.013 194.247C112.266 196.978 107.753 190.474 104.779 183.039C102.859 178.239 101.916 156.594 102.585 132.69C102.594 132.372 102.548 132.065 102.461 131.776C102.383 131.205 102.264 130.641 102.105 130.087C101.109 126.609 98.6836 123.699 95.7734 122.493C94.6172 122.014 92.4953 121.135 89.9453 121.788C90.4891 119.547 91.432 117.016 92.4547 114.277L92.8836 113.124C93.3664 111.825 93.9727 110.479 94.6133 109.054C98.0766 101.36 102.82 90.8219 97.6719 67.0149C95.7437 58.0977 89.3047 53.743 79.5437 54.7547C73.6922 55.3602 68.3383 57.7211 65.668 59.075C65.0937 59.3657 64.5687 59.6469 64.0781 59.9204C64.8234 50.936 67.6391 34.1454 78.1719 23.5219C84.8039 16.8344 93.6359 13.5313 104.397 13.7094C125.6 14.0563 139.197 24.9376 146.87 34.0055C153.483 41.8188 157.063 49.6899 158.492 53.9352C147.746 52.8422 140.438 54.9633 136.733 60.2602C128.673 71.7821 141.142 94.1446 147.135 104.892C148.234 106.862 149.183 108.564 149.481 109.288C151.433 114.017 153.959 117.175 155.804 119.48C156.37 120.186 156.918 120.871 157.335 121.47C154.08 122.408 148.234 124.576 148.767 135.413C148.337 140.85 145.282 166.308 143.73 175.302C141.68 187.185 137.308 191.61 125.013 194.247ZM178.22 133.36C174.891 134.905 169.322 136.063 164.031 136.313C158.188 136.586 155.212 135.658 154.512 135.087C154.184 128.334 156.698 127.628 159.358 126.881C159.776 126.764 160.184 126.649 160.577 126.512C160.822 126.711 161.09 126.908 161.384 127.102C166.08 130.202 174.458 130.537 186.285 128.095L186.415 128.07C184.82 129.561 182.09 131.563 178.22 133.36Z" fill="white"/>
</svg>
