<svg width="32" height="32" viewBox="0 0 32 32" fill="none" xmlns="http://www.w3.org/2000/svg">
<path d="M29 10.232C29.0089 9.79614 28.899 9.36609 28.682 8.988C28.4537 8.61699 28.1306 8.31357 27.746 8.109C24.2833 6.197 20.819 4.286 17.353 2.376C16.9352 2.12438 16.4558 1.99342 15.9681 1.99766C15.4804 2.00189 15.0034 2.14116 14.59 2.4C13.212 3.179 6.315 6.965 4.259 8.106C3.86799 8.30282 3.54158 8.60759 3.31845 8.98421C3.09531 9.36082 2.9848 9.7935 3 10.231V21.77C2.9899 22.1961 3.09345 22.6172 3.3 22.99C3.5295 23.3718 3.85952 23.6831 4.254 23.89C6.31 25.031 13.208 28.817 14.586 29.596C14.9992 29.8551 15.4761 29.9947 15.9638 29.9993C16.4515 30.0039 16.931 29.8733 17.349 29.622C20.809 27.708 24.271 25.797 27.735 23.889C28.1295 23.6818 28.4598 23.3706 28.69 22.989C28.8966 22.6162 29.0001 22.1951 28.99 21.769V10.232" fill="#659AD2"/>
<path d="M28.549 23.171C28.6015 23.1133 28.6506 23.0525 28.696 22.989C28.9026 22.6162 29.0061 22.1951 28.996 21.769V10.232C29.0049 9.79615 28.895 9.36609 28.678 8.988C28.642 8.929 28.589 8.883 28.548 8.828L16 16L28.549 23.171Z" fill="#00599C"/>
<path d="M28.549 23.171L16 16L3.451 23.171C3.66228 23.4695 3.939 23.7158 4.26 23.891C6.316 25.032 13.214 28.818 14.592 29.597C15.0052 29.8561 15.4821 29.9958 15.9698 30.0003C16.4575 30.0049 16.937 29.8743 17.355 29.623C20.815 27.709 24.277 25.798 27.741 23.89C28.0615 23.7149 28.3379 23.469 28.549 23.171Z" fill="#004482"/>
<path d="M19.6 18.02C19.1545 18.8122 18.4597 19.4349 17.6236 19.7912C16.7875 20.1475 15.8571 20.2174 14.9771 19.9901C14.0972 19.7628 13.3171 19.2509 12.7582 18.5342C12.1993 17.8175 11.893 16.9362 11.887 16.0273C11.881 15.1185 12.1756 14.2332 12.725 13.5092C13.2744 12.7851 14.0476 12.263 14.9245 12.0241C15.8014 11.7851 16.7327 11.8428 17.5734 12.188C18.4141 12.5333 19.1171 13.1467 19.573 13.933L23.188 11.86C22.2704 10.2853 20.8605 9.05594 19.1755 8.36134C17.4906 7.66675 15.6239 7.54544 13.8632 8.01608C12.1025 8.48673 10.5453 9.52323 9.43164 10.9659C8.31795 12.4086 7.7095 14.1775 7.7 16C7.69744 17.4453 8.07692 18.8656 8.8 20.117C9.5315 21.3813 10.583 22.4306 11.8487 23.1596C13.1144 23.8886 14.5498 24.2715 16.0104 24.2698C17.4711 24.2681 18.9055 23.8818 20.1695 23.1498C21.4335 22.4178 22.4825 21.366 23.211 20.1L19.6 18.02Z" fill="white"/>
<path d="M24.076 15.5379H23.15V14.6169H22.225V15.5379H21.299V16.4609H22.225V17.3809H23.15V16.4609H24.076V15.5379ZM27.549 15.5379H26.623V14.6169H25.697V15.5379H24.771V16.4609H25.697V17.3809H26.623V16.4609H27.549V15.5379Z" fill="white"/>
</svg>
