<svg width="200" height="200" viewBox="0 0 200 200" fill="none" xmlns="http://www.w3.org/2000/svg">
<g clip-path="url(#clip0_1264_37)">
<path d="M153.125 0H46.875C20.9867 0 0 20.9867 0 46.875V153.125C0 179.013 20.9867 200 46.875 200H153.125C179.013 200 200 179.013 200 153.125V46.875C200 20.9867 179.013 0 153.125 0Z" fill="#2396ED"/>
<path d="M110.302 95.4086H126.487V80.7648H110.302V95.4086ZM91.0352 95.4086H107.22V80.7648H91.0352V95.4086ZM72.1523 95.4086H88.3375V80.7648H72.1523V95.4086ZM53.2695 95.4086H69.0703V80.7648H53.2703L53.2695 95.4086ZM34.0023 95.4086H50.1875V80.7648H34.0023V95.4086ZM53.2703 77.682H69.0695V63.0391H53.2703V77.682ZM72.1531 77.682H88.3375V63.0391H72.1523L72.1531 77.682ZM91.0352 77.682H107.22V63.0391H91.0352V77.682ZM91.0352 59.9555H107.22V45.3125H91.0352V59.9555ZM178.125 88.8586C178.125 88.8586 171.188 82.307 156.93 84.6195C155.389 73.4438 143.443 66.893 143.443 66.893C143.443 66.893 132.268 80.3805 140.36 95.4094C138.048 96.5656 134.195 98.107 128.414 98.107H22.4422C20.5148 105.429 20.5148 153.983 73.6937 153.983C111.844 153.983 140.36 136.257 153.848 103.887C173.886 105.428 178.125 88.8586 178.125 88.8586Z" fill="white"/>
</g>
<defs>
<clipPath id="clip0_1264_37">
<rect width="200" height="200" fill="white"/>
</clipPath>
</defs>
</svg>
