<svg width="78" height="117" viewBox="0 0 78 117" fill="none" xmlns="http://www.w3.org/2000/svg">
<g id="logos:figma" clip-path="url(#clip0_411_326)">
<path id="Vector" d="M19.4167 116.5C30.1347 116.5 38.8333 107.801 38.8333 97.0834V77.6667H19.4167C8.69867 77.6667 0 86.3654 0 97.0834C0 107.801 8.69867 116.5 19.4167 116.5Z" fill="#0ACF83"/>
<path id="Vector_2" d="M0 58.2499C0 47.5319 8.69867 38.8333 19.4167 38.8333H38.8333V77.6666H19.4167C8.69867 77.6666 0 68.9679 0 58.2499Z" fill="#A259FF"/>
<path id="Vector_3" d="M0 19.4167C0 8.69867 8.69867 0 19.4167 0H38.8333V38.8333H19.4167C8.69867 38.8333 0 30.1347 0 19.4167Z" fill="#F24E1E"/>
<path id="Vector_4" d="M38.8333 0H58.25C68.968 0 77.6667 8.69867 77.6667 19.4167C77.6667 30.1347 68.968 38.8333 58.25 38.8333H38.8333V0Z" fill="#FF7262"/>
<path id="Vector_5" d="M77.6667 58.2499C77.6667 68.9679 68.968 77.6666 58.25 77.6666C47.532 77.6666 38.8333 68.9679 38.8333 58.2499C38.8333 47.5319 47.532 38.8333 58.25 38.8333C68.968 38.8333 77.6667 47.5319 77.6667 58.2499Z" fill="#1ABCFE"/>
</g>
<defs>
<clipPath id="clip0_411_326">
<rect width="77.6667" height="116.5" fill="white"/>
</clipPath>
</defs>
</svg>
