<svg width="200" height="200" viewBox="0 0 200 200" fill="none" xmlns="http://www.w3.org/2000/svg">
<path d="M114.833 152.417C116.083 152.417 114.833 153.417 114.833 152.417ZM86.9167 129.917C90.1667 131.333 84.3333 124.917 86.9167 129.917ZM45 132.25C46.25 134.417 45 131.25 45 132.25ZM91.6667 135.5C89.4167 132 90 136 91.6667 138.167C95.6667 142.083 93.1667 136 91.6667 135.5Z" fill="black"/>
<path d="M168.667 158.833C164.25 164.083 160.333 158.25 155.083 159.917C145.917 159.917 155.833 155.75 155.583 151.583C150.75 147.833 145.25 156.667 142.083 159.083C134.397 157.756 126.917 155.431 119.833 152.167C111.583 148.314 104.209 142.812 98.1667 136C91.4058 129.262 86.1016 121.206 82.5834 112.333C78.0856 96.7814 75.7306 80.6886 75.5834 64.5C76.1667 53.6667 87.5833 65.6667 92.25 61.75C90.5 56.1667 81.5 54.4167 76.5 52.0833C71.6667 52.0833 69.9167 47.5 64.8334 47.1667C64.8334 41.0833 55.4167 44.4167 51.8333 40.1667C55.3333 31.1667 40.4167 40.1667 41.5833 32.5833C46.4167 22.5833 26.75 24.25 34.9167 33.0833C42.8333 37.5833 27.1667 40.8333 31.75 43.8333C32.1376 44.5862 32.3241 45.4264 32.2915 46.2726C32.259 47.1188 32.0084 47.9422 31.5641 48.6631C31.1199 49.3839 30.497 49.9779 29.7557 50.3873C29.0145 50.7967 28.1801 51.0078 27.3333 51C21.1667 51.5833 21.75 60.0833 27.8333 55.5833C34.5833 53.5 29 56.5 25.75 57.0833C24.0349 57.3441 22.4076 58.013 21.0048 59.0337C19.6021 60.0544 18.4649 61.3971 17.6891 62.9487C16.9133 64.5004 16.5214 66.2156 16.5465 67.9503C16.5716 69.6849 17.013 71.3881 17.8333 72.9167C21.0889 82.2704 23.8702 91.7825 26.1667 101.417C31.3104 116.021 38.9207 129.635 48.6667 141.667C53.7914 148.099 59.8602 153.718 66.6667 158.333C72.9164 162.638 79.7308 166.06 86.9167 168.5C99.7262 172.273 112.982 174.319 126.333 174.583C134.432 174.628 142.519 173.959 150.5 172.583C157.75 173.333 162.917 167.167 169.333 170.417C173.333 166.917 179 168.5 182.917 165.917C185.583 155.75 172.75 163.667 168.667 158.833ZM154.167 152.667C154.583 149.833 152.333 152.667 154.167 152.667ZM90.5833 61C89.75 61 89.9167 60 89.25 59.75C82.5833 56.6667 92.5 57.8333 90.5833 61.3333V61ZM146.917 155.917C149.25 153.833 144 155.25 146.917 155.917ZM123.5 156.833C125 155.667 121.583 156.833 123.5 156.833ZM107.833 147C107.833 145.917 106.75 147 107.833 147ZM106 145.583C105.25 143.667 103 145.583 106 145.583ZM102.5 142.583C102.5 139.75 99.75 143.25 102.5 142.583ZM52.5 45.4167C48.0834 43.0833 53.4167 48.1667 49.6667 48.0833C47.6667 48.0833 43.9167 43.75 45.1667 41.5833C47.6667 42.9167 52.0834 43.3333 52.8334 45.75L52.5 45.4167ZM44.8333 38.6667H43.9167C43.6667 36.4167 51.1667 38.1667 45.1667 39L44.8333 38.6667ZM36.3333 32.0833C32.8333 30.5 36.3333 24.3333 40 27.25C44.25 33.3333 32.0833 26.5833 36.3333 32.0833ZM40.4167 37.8333C41.75 36.0833 38.1667 38.75 40.4167 37.8333ZM44.4167 45.5C49.4167 49.3333 41.5833 45.5 38.4167 47.9167C33.3333 48.4167 43.9167 45.0833 44.4167 45.5ZM45.8333 50.5C48.75 50.5 61.5 44.75 57.25 49.9167C61.1667 54.5 58.0834 53 55.5 49.9167C57.8334 51.5 56 58.25 52.4167 53.6667C48.8334 49.0833 48.25 52.1667 51 55.4167C48.3333 50 40.6667 52.3333 35.0833 54.1667C31.5 53.8333 44.5 51.0833 45.8333 50.5ZM29.8333 62.5833C28.5 65.9167 31.8333 67 35 67.5833C40.1667 66.1667 31.5833 65.25 35.5 63.9167C37.6667 63.9167 28.6667 61.75 36.1667 60.75C43.6667 59.75 50.75 56.4167 58.3334 54.8333C64.7592 53.4204 71.3473 52.8878 77.9167 53.25C80.4167 56.1667 76 61.0833 71.5 61.5833C66.0927 63.3225 60.498 64.4135 54.8334 64.8333C48.1667 64 43.4167 69.9167 36.5833 70.6667C38.4167 67.3333 35.0833 69.5 31.6667 69.3333C33.4167 76.1667 19.4167 67.5833 27.6667 65.9167C21.5 63.75 21.4167 70.25 22.0833 74.25C16.6667 66.6667 22.6667 63.5 29.8333 62.5833ZM45.5 71.5833C46.9167 69.9167 43.6667 71.1667 45.5 71.5833ZM39.5 78.9167C39.5 78.9167 36.6667 78.25 37.8333 77.5C46.1667 78.5833 30.3333 74.75 38.9167 75.6667C44.4167 75.5 42.5833 78.6667 39.5 78.9167ZM42.25 80.3333C42.25 78.3333 41.25 81.3333 42.25 80.3333ZM36.3333 80.3333C38.0833 78.5 32.6667 79.5833 36.3333 80.3333ZM35.8333 92.25C35.25 93.0833 35 91.5833 35.8333 92.25ZM33.3333 90.8333C33.3333 89.0833 28.75 89.25 33.3333 90.8333ZM32.3333 101.5C30.1667 100.75 30.25 97.3333 29.25 95.5C26.0833 86.9167 32.6667 98.8333 32 101.5H32.3333ZM34.25 89.0833C33.8333 85 28.5 88.4167 34.25 89.0833ZM34.25 86.25H33.5C27.1667 83.3333 37.25 84.8333 33.3333 86.25H34.25ZM33.3333 79.6667C38.1667 76.6667 28.25 77.0833 33.3333 79.6667ZM35.0833 81.8333C35.5 79.1667 32.25 82.3333 35.0833 81.8333ZM24.25 82.4167C24.25 80.5 23.25 83.0833 24.25 82.4167ZM25 81.25C25 79 23.6667 81.25 25 81.25ZM25.6667 72.9167C28.4167 70.8333 22.3333 72.0833 25.6667 72.9167ZM27.8333 89.5833C26.8333 84.1667 24.1667 88.75 27.8333 89.5833ZM30.3333 100C33.8333 104.25 32.5 106.583 36.0833 111.75C31.4167 108.833 30.5 101.75 27.75 97.1667C24.3333 89.6667 29.6667 97.0833 30.3333 100ZM64.4167 153.167C61.5834 152.583 59.6667 149.583 57.6667 147.667C51.978 143.503 47.4695 137.932 44.5833 131.5C39.7858 125.374 35.7037 118.72 32.4167 111.667C29 104 34.5 112.25 35.3333 115.167C37.0833 120.833 42.6667 124.083 43.1667 127.833C49.3333 131.333 46.1667 137.167 51.5 138.75C53.75 137.583 54 145.75 58.9167 144.083C56.1667 145.333 60 146.833 61.4167 149.167C64.3334 148.75 71.1667 156 64.4167 153.5V153.167ZM38.5 100C41.25 99.0833 35.9167 99.4167 38.5 100ZM40.1667 103.917C44.5 102.25 35.5833 102.75 40.1667 103.917ZM51.75 107.833C55.0834 106.417 53.0834 114.333 56.3334 115.333C62.6667 123.667 51.9167 115.333 48 114.75C48.5 114.75 44.8334 113.75 46.4167 113.417C45.25 112.167 42.6667 107.917 48.5833 110.75C53.5833 112.75 54 111.25 51.75 107.5V107.833ZM62.6667 122.5C62.6667 123.75 56.6667 123.583 62.1667 126C59 126 58 126 62.1667 128.5C60.3334 129.917 65.75 131.083 63.9167 133.25C69.4167 137.583 62.9167 134.333 60.5834 132.583C58.25 130.833 53.5 129.667 54.3334 128.417C61.0834 131.917 56.0834 128.417 53.0834 125.917C58.5 127.25 48.8333 121.917 53.9167 123.333C55.5 123.75 51.6667 120.167 56.6667 122.75C52.1667 118.417 60.5834 121.75 62.6667 122.167V122.5ZM66.6667 121.083C66.6667 118.25 61.5834 119.917 66.6667 121.083ZM65.25 137.75C68.5 137.75 60.1667 135.583 65.25 137.75ZM61.5 136.333C65.8334 136.333 55.5834 134.417 61.5 136.333ZM60.75 137.25C60.75 135.833 58.9167 137.25 60.75 137.25ZM51.75 124.333C50.0834 121.583 45.75 121.833 51.75 124.333ZM47.25 121.417C46.5833 118.667 42.4167 118.667 47.25 121.417ZM47.25 126.833C46.6667 124.75 42.5 123.167 47.25 126.833ZM46 115.667C47.0833 114 43.0833 115.667 46 115.667ZM66.6667 144.833C66.6667 143.667 62.4167 143.583 66.6667 144.833ZM63.5834 141.667H62.25C56.5833 137.167 64.8334 138.5 68.5 140.5C76.5834 141.667 66.6667 143.75 63.5834 141.667ZM86.0833 155.417C87.4167 153.167 80.4167 154.083 86.0833 155.417ZM84.6667 151.083C84.25 151.083 83.8333 150.167 84.6667 151.083ZM77.5 139.917C72.5834 138.75 79.25 138.333 80.5 139.917C89 141.667 80 142.083 77.5 139.917ZM79.25 150H78.3333L77.25 149.5C72.5834 144.583 87.1667 151.833 79.25 150ZM76.9167 155.75C76.9167 154.583 75.6667 156.25 76.9167 155.75ZM79.3334 145.833L78 145.417C72.5 141.667 85 146.167 79.3334 145.417V145.833ZM80.6667 160.167C82.8334 158.083 77.3334 158.833 80.6667 160.167ZM81.5 154C84.5 152.917 76.6667 152.833 81.5 154ZM82.5834 148.917C83 147.167 78.9167 148.417 82.5834 148.917ZM76.5833 141.583C80.4167 142.083 80.5 143.833 76.5833 142.75C75.8333 142.75 74.5834 142.75 74.25 141.333C67.9167 137.167 74.5 139.25 76.5833 141.167V141.583ZM76.0834 158.25C76.0834 156.417 74.4167 159.25 76.0834 158.25ZM73.5 154C76.8334 151.833 69.0834 154 73.5 154ZM72.5 156.917C73.9167 156.25 70.3334 156.083 72.5 156.917ZM75 149.5C77.0834 148 70.6667 148.333 75 149.5ZM73.6667 144.75C73.1667 143.417 71.3334 144.75 73.6667 144.75ZM69.1667 136.833C79 140 64.4167 133 69.1667 136.833ZM68.6667 138.417C68.6667 138.917 67.75 137.667 68.6667 138.417ZM99.0834 169.917C91.6687 168.593 84.4836 166.208 77.75 162.833L75 161.167C70.25 158.583 70.8334 158 75.5 160.583C77.0834 161.917 88.75 166.667 83.25 163.5C80.8333 162.917 67.4167 155.583 76.25 158.75C83.6104 162.652 91.2411 166.022 99.0834 168.833C105.712 170.406 112.562 170.829 119.333 170.083C124.75 172.833 130.417 169.417 136 171.833C123.62 173.325 111.077 172.677 98.9167 169.917H99.0834ZM88.6667 164.083C90 162.167 84.4167 163.333 88.6667 164.083ZM94.75 155.75C99.75 153.833 89.9167 154.833 94.75 155.75ZM101.75 166.667C110.083 169.75 96.75 167.667 94 165.917C86.3333 162.75 100 166.667 101.75 166.667ZM92.9167 157.5C100.417 157.5 86.1667 156.5 92.9167 157.5ZM105.583 164.583C105.583 162.083 103.167 166.5 105.583 164.583ZM108 165C108 163.583 106.75 165.5 108 165ZM110.25 161.833C110.25 159.917 108.917 163.5 110.25 161.833ZM112.833 161.833C116.75 158.583 109.083 163.25 112.833 161.833ZM114 161.833C118.083 158.333 118.25 160 118.167 162.917C114.583 166.917 116.75 161.25 114.5 163.417C112.25 165.583 112.917 162.583 114 162V161.833ZM120.917 165.583C125.167 161.083 116.75 165.583 120.917 165.583ZM120.917 167.083C120.917 166 119.25 167.5 120.917 167.083ZM119.583 164.167C127.417 159.083 116.333 162 119.583 164.167ZM124.333 164.917H123.667C123.417 163 128.167 162.667 124.333 165.083V164.917ZM125.583 166.5C129.5 163.167 123.083 165.833 125.583 166.5ZM128.583 165.667C132.583 162.333 124.333 167.167 128.583 165.667ZM130.417 166.583L129.417 167.25C127.5 166.083 135.333 163.25 130.417 166.667V166.583ZM126.833 162.167C122.333 160.667 115.167 155.833 110.167 159.083C103.5 163.333 113.583 154.417 108.167 158.417C102.667 165 104.417 154.25 99.0834 157.5C99.0834 156.5 94.3334 156.167 97.6667 154.417C94.6667 154.417 96.5834 154 97.6667 151.583C96.3334 151.583 89.3333 151.583 86.3333 149.167C83 144.833 86.9167 146.667 90.3334 147.25C84.75 148.25 92.3334 151.417 96 149.667C94.3334 148.917 92.4167 145.333 87.6667 142.167C81.9295 139.022 76.0013 136.238 69.9167 133.833C62.9167 129.667 71.4167 132.333 73.8333 134.5C80.8334 137.583 78.0834 130.25 73.8333 128.333C69.3333 128.333 68.25 123.417 64.6667 123.667C70.25 124.583 74.1667 122.25 67.9167 116.583C61.6667 110.917 70.4167 121.833 67 120.25C65.4167 118.167 66.5834 115.25 61.5834 114.167C61.5834 116.083 60.9167 119 59.8334 115C58.4167 115 56.8334 116.75 55.6667 112.667C56.75 107.917 51 106.833 50.0834 103.833C55.0834 107 57.3334 104.5 53.8334 101.083C50.3334 97.6667 51.0833 100.167 49.75 101.083C44.8333 106.083 49.25 92.75 47.0833 96.4167C44.9167 96.4167 46.1667 98.8333 46.25 101.833C39.0833 100.083 47.9167 105.583 50 108.583C46.75 105.25 47.3333 111.167 44.5833 108.583C43.6667 106.083 43.5833 102.167 39 101.5C44.1667 99.6667 36 96.0833 36.6667 95.9167C39.5833 93.25 40 89.5833 43.5 95.3333C39.0833 95.3333 43.5 102.667 44.5 100.333C44.5 96.4167 46.3333 92 39.5833 90.4167C37.5833 93.0833 34.1667 85.1667 38.0833 86.8333C37.5833 81.5833 44.25 84.6667 43.8334 82.4167C47.3334 80.9167 39.6667 76 43.8334 74.0833C47 76.0833 55.1667 71.0833 49.6667 70.4167C53.1667 70.4167 55.9167 71.9167 56.25 68.4167C59 69 66.5834 71.4167 59.75 67.6667C62.7492 66.4469 65.9329 65.7426 69.1667 65.5833C75.75 60.5 74.4167 73.9167 72.9167 77.6667C75.4167 75.9167 74.9167 85.5 74.0834 89.0833C75.4167 87.25 76 92.0833 74.0834 95.5C74.0834 94.9167 77.4167 94.4167 75.0834 98.4167C73.25 94.5 72.5 106.75 73.6667 101.083C76.75 96 76 101.083 76.9167 103.083C77.5833 107.667 79.5834 111.917 80.25 116.083C83.1667 119 79 117 79 121C79.9167 119.833 83.8334 122.583 83.75 126.667C83.75 120.167 84.5 125.167 87.6667 126.667C89.7978 131.029 92.6109 135.024 96 138.5C99.0834 142.083 96 139.583 97.1667 141.75C99.2232 144.588 101.821 146.992 104.81 148.823C107.799 150.653 111.12 151.875 114.583 152.417C115.867 154.648 117.825 156.415 120.176 157.463C122.526 158.511 125.149 158.787 127.667 158.25C122.667 161.333 141.667 162.167 135.25 163.833C133.333 165.167 130.083 162.167 126.833 162.333V162.167ZM72.5 132.417C72.5 130.75 70.5 132.417 72.5 132.417ZM75.6667 134.25C74.6667 132.25 74.1667 134.25 75.6667 134.25ZM53.9167 103.833C54.75 103.083 51.9167 103.25 53.9167 103.833ZM49 103.833C49 101 46.8333 103.833 49 103.833ZM46.5 103.167C46.5 102.25 45.6667 103.583 46.5 103.167ZM138.167 171.917C140.833 170.083 134.917 171.333 138.167 171.917ZM144.25 163.167H141.75C142.25 159.417 152.833 162.333 157.167 162.417C155.833 165.25 147.75 162.75 144.25 163.5V163.167ZM160.917 163.167C161.917 160.5 158.667 163.167 160.917 163.167ZM169.25 162.417C169.25 159.917 167.167 163.5 169.25 162.417ZM173.25 163.333C168.917 162.333 175.25 162.333 176.583 162.167C184.417 162.333 176.583 163.5 172.667 163.5L173.25 163.333Z" fill="black"/>
<path d="M54.25 59.25C62.5833 57.5833 51.0833 56.5 48.5 59.25C50 60.3333 51.9167 57.5 54.25 59.25ZM47.4167 60.3333C48.9167 58.5 47.4167 61.9167 47.4167 60.3333ZM69.25 56.3333C74.8333 55.4167 70.1667 52.9167 68.5 57.1667C69.0833 58.3333 69.4167 56.75 69.25 56.3333ZM64.0833 57.1667C71.8333 60.1667 63.6667 48.8333 64.0833 57.1667ZM39.75 64.9167C40.7356 64.8667 41.7079 65.1614 42.5 65.75C48.75 70.0833 41.6667 58.75 39.75 64.9167Z" fill="black"/>
<path d="M40.0833 61.9167C42.5 60.1667 41.4166 63 40.0833 61.9167ZM43.1666 62L44.3333 63C50 63.5 43.4166 59.1667 43.1666 62ZM89.0833 133.333C89.8333 135.833 89.0833 130.083 89.0833 133.333ZM49.25 91.6667C50.75 90.1667 50.0833 93.1667 49.25 91.6667ZM50 96.75C51.5833 99.5833 50 92.5 50 96.75ZM51.75 92.6667C54.5 94.4167 49.4166 88.3333 51.75 92.6667ZM48.3333 85.8333C48.9166 87.0833 50.3333 87.1667 51.4166 87.5C62.4166 92.5833 43.5 79.1667 48.3333 85.8333ZM52.8333 97.75C55.4166 102.167 54.3333 94.6667 52.8333 97.75ZM56.8333 96.4167C59.9166 104.083 54.9166 95.4167 54.3333 92.8333C54.4047 95.7621 55.2068 98.6267 56.6666 101.167C59.5 105.417 58.25 98.8333 61.25 103.083C59.5833 99.3333 62.0833 101.417 61.75 99.75C61.4166 98.0833 53.4166 90 56.8333 96.4167ZM59.8333 111.25C61.3333 111.25 60.5833 113.833 59.8333 111.25ZM48.75 75C49.6666 75 49.25 76.1667 48.75 75ZM54.3333 78.5C57 81.9167 55.75 75.5 54.3333 78.5ZM46.9166 88L48.0833 89.25C56.3333 91.6667 39.3333 81.3333 46.9166 88ZM52.75 84.9167C61.0833 88.3333 52 82.6667 49.0833 83.25C50 84.3333 51.75 83.8333 52.75 84.9167ZM51.25 81.25C52.75 82.75 58.0833 85.5 53.8333 81.75C56.5 81.25 53.8333 80.4167 51.8333 79.0833C48.1666 73.5 52.4166 79.5833 51.25 81.25Z" fill="black"/>
<path d="M45.9167 88.6667C41.5 85 47.25 90.4167 45.4167 90.3333C40.8334 87 42.75 89.4167 45.4167 92C48.1667 96.1667 50.4167 89.5 45.9167 88.6667ZM63.75 94C64.75 94.9167 63.25 88.3333 63.75 94ZM72.25 64.8333C72.8334 64 72.25 65.8333 72.25 64.8333ZM75 103.917C75 105.667 75 102.417 75 103.917ZM72.5834 93.75C73.4167 87.25 73.25 97.5833 72.5834 93.75ZM73.75 95.5833V96.4167C75.5 92.1667 74.0834 89.8333 73.75 95.5833ZM72.9167 73.0833C71.75 78.9167 70.6667 76.5 72.25 72.1667C71.8334 66.5833 68.5 75.5833 70 78.1667C72.4167 82.0833 75 68.5 72.9167 73.0833ZM81.3334 122.917C82.4167 125.833 82.25 119.417 81.3334 122.917ZM70.0834 87.25C70.0834 88.9167 70.0834 86.0833 70.0834 87.25ZM75.4167 101.417C76.3334 98.25 75.4167 103.583 75.4167 101.417ZM79.1667 116.667L79.75 117.583C80.9167 113.5 76.75 111 79.1667 116.667ZM66.1667 112.333C68.4167 114.167 65.0834 110.417 66.1667 112.333ZM76.4167 105.25C77.0834 107.667 76.4167 101.75 76.4167 105.25ZM67.8334 81.75C69.0834 84.5 67.4167 79.5 67.8334 81.75Z" fill="black"/>
<path d="M69.1666 85.25C71.1666 88.0833 67 79.9167 69.1666 85.25ZM68.6666 94.8333C67.5833 86.5 65.1666 98.5833 68.6666 100.583C69.75 103.417 70.75 102.25 71.1666 99C68.5 99 71.8333 93.8333 68.6666 94.8333Z" fill="black"/>
</svg>
