<svg width="256" height="256" viewBox="0 0 256 256" fill="none" xmlns="http://www.w3.org/2000/svg">
<g clip-path="url(#clip0_1311_166)">
<path d="M196 0H60C26.8629 0 0 26.8629 0 60V196C0 229.137 26.8629 256 60 256H196C229.137 256 256 229.137 256 196V60C256 26.8629 229.137 0 196 0Z" fill="#242938"/>
<path fill-rule="evenodd" clip-rule="evenodd" d="M215.846 78.314C215.91 78.557 215.944 78.808 215.944 79.061V118.26C215.944 118.763 215.813 119.257 215.565 119.692C215.318 120.126 214.96 120.487 214.528 120.739L182.082 139.681V177.226C182.083 177.726 181.954 178.218 181.707 178.653C181.46 179.088 181.103 179.451 180.673 179.706L112.945 219.241C112.79 219.33 112.621 219.387 112.452 219.448C112.388 219.47 112.329 219.509 112.262 219.527C111.789 219.653 111.29 219.653 110.817 219.527C110.74 219.505 110.669 219.462 110.595 219.434C110.44 219.377 110.278 219.327 110.13 219.241L42.416 179.706C41.9848 179.454 41.6276 179.093 41.38 178.659C41.131 178.222 41 177.729 41 177.226V59.629C41 59.371 41.035 59.121 41.099 58.879C41.119 58.796 41.169 58.721 41.197 58.639C41.25 58.489 41.299 58.336 41.377 58.196C41.43 58.103 41.507 58.028 41.571 57.943C41.651 57.828 41.726 57.71 41.821 57.61C41.901 57.528 42.008 57.467 42.099 57.396C42.201 57.31 42.293 57.217 42.409 57.149H42.413L76.27 37.382C76.6978 37.1323 77.1842 37.0007 77.6795 37.0007C78.1748 37.0007 78.6612 37.1323 79.089 37.382L112.948 57.149H112.955C113.067 57.221 113.163 57.31 113.265 57.392C113.356 57.464 113.458 57.528 113.539 57.607C113.638 57.71 113.709 57.828 113.793 57.943C113.853 58.028 113.934 58.103 113.983 58.196C114.064 58.339 114.11 58.489 114.167 58.639C114.195 58.721 114.244 58.796 114.265 58.882C114.33 59.126 114.363 59.377 114.364 59.629V133.079L142.578 116.606V79.056C142.578 78.806 142.613 78.553 142.677 78.314C142.702 78.228 142.747 78.153 142.776 78.071C142.832 77.921 142.881 77.767 142.959 77.628C143.012 77.535 143.089 77.46 143.149 77.374C143.234 77.26 143.304 77.142 143.403 77.042C143.484 76.96 143.586 76.899 143.678 76.827C143.783 76.742 143.875 76.649 143.988 76.581H143.992L177.854 56.813C178.281 56.5628 178.768 56.4309 179.263 56.4309C179.758 56.4309 180.245 56.5628 180.672 56.813L214.531 76.581C214.651 76.653 214.742 76.741 214.848 76.824C214.936 76.895 215.038 76.96 215.119 77.038C215.218 77.142 215.288 77.26 215.373 77.374C215.436 77.46 215.514 77.534 215.563 77.628C215.644 77.768 215.69 77.921 215.746 78.071C215.778 78.153 215.825 78.228 215.846 78.314ZM210.299 116.606V84.009L198.45 90.925L182.081 100.482V133.079L210.302 116.606H210.299ZM176.44 175.572V142.954L160.339 152.279L114.36 178.888V211.813L176.44 175.572ZM46.644 64.577V175.572L108.717 211.81V178.891L76.289 160.281L76.279 160.274L76.264 160.267C76.155 160.203 76.064 160.11 75.961 160.031C75.873 159.96 75.771 159.903 75.694 159.824L75.687 159.814C75.595 159.724 75.531 159.614 75.454 159.513C75.384 159.417 75.299 159.335 75.243 159.235L75.239 159.224C75.175 159.117 75.136 158.988 75.091 158.867C75.045 158.76 74.985 158.66 74.957 158.545V158.541C74.922 158.406 74.915 158.263 74.9 158.123C74.886 158.016 74.858 157.909 74.858 157.802V81.051L58.493 71.49L46.644 64.58V64.577ZM77.684 43.162L49.474 59.63L77.677 76.096L105.884 59.626L77.677 43.163L77.684 43.162ZM92.355 145.926L108.721 136.373V64.577L96.871 71.494L80.503 81.05V152.847L92.355 145.926ZM179.264 62.594L151.056 79.061L179.264 95.527L207.467 79.057L179.264 62.594ZM176.441 100.482L160.072 90.925L148.224 84.009V116.606L164.589 126.159L176.441 133.079V100.482ZM111.536 173.94L152.909 149.988L173.591 138.02L145.405 121.564L112.952 140.51L83.374 157.777L111.536 173.94Z" fill="#FF2D20"/>
</g>
<defs>
<clipPath id="clip0_1311_166">
<rect width="256" height="256" fill="white"/>
</clipPath>
</defs>
</svg>
