<svg width="200" height="200" viewBox="0 0 200 200" fill="none" xmlns="http://www.w3.org/2000/svg">
<g clip-path="url(#clip0_1264_128)">
<path d="M153.125 0H46.875C20.9867 0 0 20.9867 0 46.875V153.125C0 179.013 20.9867 200 46.875 200H153.125C179.013 200 200 179.013 200 153.125V46.875C200 20.9867 179.013 0 153.125 0Z" fill="#023430"/>
<path d="M133.729 84.0555C125.497 47.7422 108.341 38.075 103.964 31.2414C102.159 28.231 100.56 25.1017 99.1789 21.875C98.9477 25.1016 98.5227 27.1328 95.7805 29.5797C90.275 34.4883 66.8922 53.543 64.9242 94.8031C63.0906 133.273 93.2055 156.995 97.1836 159.447C100.243 160.952 103.969 159.479 105.787 158.097C120.303 148.134 140.138 121.573 133.745 84.0555" fill="#10AA50"/>
<path d="M100.426 138.962C99.6679 148.484 99.125 154.016 97.2 159.458C97.2 159.458 98.4632 168.523 99.3507 178.125H102.491C103.24 171.363 104.383 164.65 105.916 158.022C101.851 156.022 100.582 147.317 100.426 138.962Z" fill="#B8C4C2"/>
<path d="M105.91 158.027C101.802 156.13 100.614 147.241 100.431 138.962C101.447 125.303 101.743 111.601 101.319 97.9109C101.103 90.7281 101.42 31.3812 99.5492 22.6921C100.829 25.635 102.304 28.4892 103.964 31.2359C108.341 38.075 125.502 47.7421 133.729 84.0554C140.137 121.509 120.411 148 105.91 158.027Z" fill="#12924F"/>
</g>
<defs>
<clipPath id="clip0_1264_128">
<rect width="200" height="200" fill="white"/>
</clipPath>
</defs>
</svg>
