<svg width="200" height="228" viewBox="0 0 200 228" fill="none" xmlns="http://www.w3.org/2000/svg">
<g clip-path="url(#clip0_1264_41)">
<path d="M1.60469 170.459C2.63594 172.292 4.12578 173.668 5.96016 174.699L94.2117 225.588C97.8797 227.765 102.349 227.765 105.902 225.588L194.155 174.699C197.823 172.637 200 168.739 200 164.498V62.7219C200 58.4813 197.823 54.5844 194.155 52.5219L105.902 1.63286C102.235 -0.545264 97.7648 -0.545264 94.2117 1.63286L5.96094 52.5219C2.17734 54.5844 0 58.4813 0 62.7219V164.613C0 166.677 0.458594 168.625 1.60469 170.459Z" fill="#009639"/>
<path d="M71.7476 152.464C71.7539 153.956 71.4647 155.434 70.8967 156.814C70.3287 158.193 69.4932 159.447 68.4383 160.502C67.3834 161.557 66.13 162.392 64.7505 162.96C63.371 163.528 61.8926 163.817 60.4008 163.811C58.909 163.817 57.4307 163.528 56.0513 162.96C54.6719 162.392 53.4186 161.556 52.3638 160.501C51.3089 159.446 50.4734 158.193 49.9055 156.814C49.3375 155.434 49.0484 153.956 49.0547 152.464V74.6422C49.0547 68.5672 54.4414 63.6391 61.8906 63.6391C67.2781 63.6391 73.582 65.8165 77.364 70.5157L80.8015 74.6422L128.252 131.375V74.8711C128.246 73.3793 128.535 71.901 129.103 70.5214C129.671 69.1419 130.507 67.8885 131.562 66.8336C132.617 65.7787 133.87 64.9432 135.249 64.3752C136.629 63.8072 138.107 63.518 139.599 63.5243C141.091 63.5181 142.569 63.8073 143.949 64.3754C145.328 64.9434 146.581 65.779 147.636 66.8339C148.691 67.8888 149.527 69.1422 150.094 70.5216C150.662 71.9011 150.952 73.3794 150.945 74.8711V152.694C150.945 158.768 145.559 163.696 138.109 163.696C132.722 163.696 126.418 161.519 122.636 156.82L71.7476 96.0743V152.464Z" fill="white"/>
</g>
<defs>
<clipPath id="clip0_1264_41">
<rect width="200" height="227.344" fill="white"/>
</clipPath>
</defs>
</svg>
