<svg width="255" height="255" viewBox="0 0 264 236" fill="none" xmlns="http://www.w3.org/2000/svg">
<g clip-path="url(#clip0_525_2)" filter="url(#filter0_d_525_2)">
<path d="M214.483 73.8238C211.759 72.8891 209.011 72.0232 206.243 71.2268C206.708 69.3268 207.136 67.4498 207.516 65.6058C213.754 35.3248 209.676 10.9298 195.747 2.89783C182.392 -4.80217 160.551 3.22683 138.493 22.4238C136.319 24.3192 134.193 26.2691 132.118 28.2718C130.729 26.9401 129.315 25.6342 127.877 24.3548C104.759 3.82883 81.587 -4.82217 67.673 3.23283C54.33 10.9568 50.379 33.8898 55.995 62.5878C56.5537 65.4301 57.1846 68.2576 57.887 71.0678C54.607 71.9998 51.442 72.9918 48.413 74.0478C21.309 83.4978 4 98.3068 4 113.668C4 129.533 22.582 145.446 50.812 155.095C53.1007 155.874 55.4084 156.596 57.733 157.26C56.978 160.287 56.3078 163.334 55.723 166.398C50.369 194.598 54.55 216.989 67.857 224.664C81.601 232.59 104.669 224.444 127.13 204.809C128.951 203.213 130.733 201.571 132.472 199.886C134.72 202.054 137.027 204.16 139.392 206.2C161.15 224.922 182.638 232.482 195.932 224.786C209.663 216.837 214.126 192.783 208.332 163.518C207.876 161.225 207.364 158.944 206.797 156.676C208.417 156.196 210.007 155.702 211.557 155.188C240.905 145.465 260 129.745 260 113.668C260 98.2508 242.132 83.3418 214.483 73.8238ZM208.118 144.808C206.718 145.271 205.282 145.718 203.818 146.153C200.578 135.896 196.206 124.99 190.855 113.721C195.961 102.721 200.165 91.9538 203.314 81.7638C205.933 82.5218 208.474 83.3208 210.924 84.1638C234.614 92.3198 249.064 104.377 249.064 113.668C249.064 123.564 233.458 136.411 208.118 144.808ZM197.604 165.642C200.166 178.582 200.531 190.282 198.834 199.429C197.31 207.648 194.244 213.127 190.452 215.322C182.385 219.992 165.132 213.922 146.525 197.91C144.325 196.013 142.179 194.056 140.088 192.04C147.302 184.151 154.511 174.98 161.547 164.794C173.923 163.696 185.615 161.9 196.218 159.449C196.729 161.502 197.191 163.567 197.604 165.642ZM91.276 214.515C83.394 217.298 77.116 217.378 73.321 215.19C65.246 210.533 61.889 192.554 66.468 168.438C67.0123 165.588 67.6356 162.754 68.337 159.939C78.823 162.259 90.43 163.927 102.835 164.933C109.919 174.9 117.336 184.061 124.811 192.083C123.222 193.62 121.596 195.118 119.934 196.575C110.001 205.257 100.048 211.417 91.276 214.515ZM54.35 144.747C41.867 140.48 31.558 134.935 24.492 128.884C18.142 123.447 14.937 118.048 14.937 113.668C14.937 104.346 28.834 92.4558 52.013 84.3748C54.826 83.3948 57.77 82.4698 60.825 81.6018C64.029 92.0218 68.231 102.917 73.302 113.934C68.165 125.114 63.903 136.183 60.668 146.726C58.5461 146.118 56.4395 145.458 54.35 144.747ZM66.728 60.4868C61.917 35.8998 65.112 17.3528 73.153 12.6978C81.717 7.73983 100.655 14.8088 120.616 32.5328C121.918 33.6912 123.198 34.8731 124.457 36.0778C117.019 44.0648 109.67 53.1578 102.649 63.0658C90.609 64.1818 79.084 65.9738 68.488 68.3748C67.8352 65.761 67.2483 63.1302 66.728 60.4868ZM177.155 87.7548C174.652 83.4317 172.057 79.1631 169.37 74.9518C177.538 75.9848 185.364 77.3558 192.713 79.0318C190.507 86.1038 187.757 93.4968 184.52 101.077C182.154 96.5876 179.698 92.146 177.155 87.7548ZM132.123 43.8938C137.167 49.3588 142.219 55.4598 147.188 62.0798C137.108 61.6038 127.011 61.6018 116.931 62.0738C121.905 55.5148 127 49.4218 132.123 43.8938ZM86.802 87.8298C84.2903 92.1857 81.8807 96.5995 79.575 101.068C76.391 93.5148 73.666 86.0878 71.441 78.9158C78.745 77.2818 86.534 75.9458 94.65 74.9318C91.9334 79.1688 89.3167 83.47 86.802 87.8298ZM94.883 153.182C86.498 152.246 78.592 150.979 71.29 149.389C73.55 142.089 76.335 134.504 79.588 126.789C81.9028 131.26 84.3225 135.677 86.845 140.035C89.439 144.515 92.125 148.903 94.883 153.182ZM132.425 184.212C127.241 178.62 122.071 172.433 117.022 165.779C121.924 165.971 126.921 166.069 132 166.069C137.218 166.069 142.376 165.952 147.453 165.726C142.468 172.5 137.435 178.696 132.425 184.212ZM184.623 126.395C188.045 134.195 190.929 141.74 193.219 148.915C185.797 150.609 177.783 151.973 169.339 152.986C172.045 148.696 174.665 144.354 177.198 139.96C179.773 135.494 182.249 130.971 184.623 126.395ZM167.725 134.496C163.847 141.232 159.751 147.841 155.444 154.311C147.642 154.863 139.822 155.138 132 155.134C124.033 155.134 116.284 154.886 108.822 154.402C104.402 147.947 100.228 141.327 96.309 134.556C92.4082 127.821 88.7656 120.94 85.387 113.929C88.757 106.916 92.3895 100.032 96.277 93.2918L96.276 93.2928C100.162 86.551 104.303 79.9593 108.689 73.5318C116.302 72.9558 124.109 72.6558 131.999 72.6558C139.925 72.6558 147.743 72.9588 155.354 73.5388C159.696 79.9567 163.81 86.5258 167.689 93.2338C171.589 99.959 175.27 106.809 178.725 113.774C175.306 120.81 171.637 127.721 167.725 134.496ZM190.285 12.3718C198.857 17.3158 202.191 37.2528 196.805 63.3978C196.461 65.0658 196.075 66.7648 195.655 68.4878C185.033 66.0358 173.5 64.2128 161.425 63.0798C154.391 53.0628 147.102 43.9558 139.785 36.0718C141.703 34.2233 143.666 32.4228 145.673 30.6718C164.573 14.2248 182.237 7.73083 190.285 12.3718ZM132 90.8078C144.625 90.8078 154.86 101.043 154.86 113.668C154.86 126.293 144.625 136.528 132 136.528C119.375 136.528 109.14 126.293 109.14 113.668C109.14 101.043 119.375 90.8078 132 90.8078Z" fill="#00D8FF"/>
</g>
<defs>
<filter id="filter0_d_525_2" x="0" y="0" width="264" height="236" filterUnits="userSpaceOnUse" color-interpolation-filters="sRGB">
<feFlood flood-opacity="0" result="BackgroundImageFix"/>
<feColorMatrix in="SourceAlpha" type="matrix" values="0 0 0 0 0 0 0 0 0 0 0 0 0 0 0 0 0 0 127 0" result="hardAlpha"/>
<feOffset dy="4"/>
<feGaussianBlur stdDeviation="2"/>
<feComposite in2="hardAlpha" operator="out"/>
<feColorMatrix type="matrix" values="0 0 0 0 0 0 0 0 0 0 0 0 0 0 0 0 0 0 0.25 0"/>
<feBlend mode="normal" in2="BackgroundImageFix" result="effect1_dropShadow_525_2"/>
<feBlend mode="normal" in="SourceGraphic" in2="effect1_dropShadow_525_2" result="shape"/>
</filter>
<clipPath id="clip0_525_2">
<rect width="256" height="228" fill="white" transform="translate(4)"/>
</clipPath>
</defs>
</svg>
