<svg width="200" height="200" viewBox="0 0 200 200" fill="none" xmlns="http://www.w3.org/2000/svg">
<g clip-path="url(#clip0_1264_63)">
<path d="M153.125 0H46.875C20.9867 0 0 20.9867 0 46.875V153.125C0 179.013 20.9867 200 46.875 200H153.125C179.013 200 200 179.013 200 153.125V46.875C200 20.9867 179.013 0 153.125 0Z" fill="#242938"/>
<mask id="mask0_1264_63" style="mask-type:luminance" maskUnits="userSpaceOnUse" x="21" y="21" width="158" height="158">
<path d="M21.875 21.875H178.125V178.125H21.875V21.875Z" fill="white"/>
</mask>
<g mask="url(#mask0_1264_63)">
<path d="M172.001 136.303C163.663 140.652 120.472 158.41 111.277 163.202C102.08 167.995 96.9734 167.95 89.7078 164.478C82.4422 161.007 36.4805 142.442 28.1953 138.482C24.0531 136.502 21.8828 134.837 21.8828 133.262V117.469C21.8828 117.469 81.7258 104.441 91.3891 100.974C101.053 97.507 104.396 97.3828 112.623 100.394C120.849 103.405 170.005 112.274 178.127 115.252V130.827C178.127 132.389 176.255 134.141 172.009 136.312L172.001 136.303Z" fill="#A41E11"/>
<path d="M172.002 120.505C163.663 124.854 120.472 142.612 111.277 147.404C102.08 152.197 96.9734 152.151 89.7078 148.68C82.4422 145.209 36.4805 126.643 28.1961 122.684C19.911 118.723 19.7453 116.002 27.8766 112.816L91.3852 88.2281C101.045 84.7656 104.392 84.6367 112.618 87.6484C120.845 90.6602 163.775 107.747 171.894 110.77C180.013 113.795 180.331 116.197 171.993 120.546L172.002 120.505Z" fill="#D82C20"/>
<path d="M172.001 110.547C163.663 114.896 120.472 132.654 111.277 137.446C102.08 142.239 96.9734 142.193 89.7078 138.722C82.4422 135.251 36.4805 116.685 28.1953 112.726C24.0531 110.745 21.8828 109.08 21.8828 107.506V91.7117C21.8828 91.7117 81.7258 78.6843 91.3891 75.2179C101.053 71.7507 104.396 71.6265 112.623 74.6375C120.849 77.6492 170.005 86.5179 178.127 89.4961V105.071C178.127 106.632 176.255 108.384 172.009 110.555L172.001 110.547Z" fill="#A41E11"/>
<path d="M172.002 94.7524C163.663 99.1016 120.472 116.859 111.277 121.652C102.08 126.445 96.9734 126.399 89.7078 122.928C82.4422 119.456 36.4805 100.891 28.1961 96.9313C19.911 92.9711 19.7453 90.25 27.8766 87.0641L91.3852 62.4805C101.045 59.0133 104.392 58.8891 112.618 61.9008C120.845 64.9118 163.775 82.0024 171.902 84.9727C180.029 87.943 180.34 90.3993 172.002 94.7485V94.7524Z" fill="#D82C20"/>
<path d="M172.001 83.8375C163.663 88.1867 120.472 105.945 111.277 110.741C102.08 115.538 96.9734 115.488 89.7078 112.017C82.4422 108.546 36.4805 89.9805 28.1953 86.0203C24.0531 84.0406 21.8828 82.3758 21.8828 80.8016V64.9984C21.8828 64.9984 81.7258 51.9719 91.3891 48.5047C101.053 45.0375 104.396 44.9133 112.623 47.925C120.849 50.9359 170.005 59.8047 178.127 62.7828V78.3578C178.127 79.9195 176.255 81.6711 172.009 83.8422L172.001 83.8375Z" fill="#A41E11"/>
<path d="M172.002 68.039C163.663 72.3882 120.472 90.146 111.277 94.939C102.08 99.7312 96.9734 99.6859 89.7078 96.2148C82.4422 92.7437 36.4805 74.1781 28.1961 70.2179C19.911 66.2578 19.7453 63.5367 27.8766 60.3507L91.3852 35.7671C101.045 32.2999 104.392 32.1757 112.618 35.1874C120.845 38.1984 163.775 55.289 171.902 58.2593C180.029 61.2296 180.34 63.6859 172.002 68.0351V68.039Z" fill="#D82C20"/>
<path d="M103.903 61.5272L99.007 53.3882L83.3742 51.9796L95.0391 47.771L91.5383 41.3101L102.458 45.5757L112.755 42.2038L109.971 48.8812L120.468 52.8163L106.931 54.2249L103.903 61.5272ZM77.8234 77.7319L114.027 72.1733L103.091 88.2116L77.8234 77.7319ZM68.0649 71.8874C78.7524 71.8874 87.4172 68.528 87.4172 64.3858C87.4172 60.2429 78.7524 56.8843 68.0649 56.8843C57.3766 56.8843 48.7117 60.2429 48.7117 64.3858C48.7117 68.5288 57.3758 71.8874 68.0649 71.8874Z" fill="white"/>
<path d="M157.901 63.2921L136.486 71.7507L136.47 54.821L157.901 63.2921Z" fill="#7A0C00"/>
<path d="M136.49 71.7499L134.17 72.6616L112.772 64.203L136.477 54.8257L136.49 71.7499Z" fill="#AD2115"/>
</g>
</g>
<defs>
<clipPath id="clip0_1264_63">
<rect width="200" height="200" fill="white"/>
</clipPath>
</defs>
</svg>
