<svg width="200" height="200" viewBox="0 0 200 200" fill="none" xmlns="http://www.w3.org/2000/svg">
<g clip-path="url(#clip0_1264_90)">
<mask id="mask0_1264_90" style="mask-type:luminance" maskUnits="userSpaceOnUse" x="0" y="0" width="200" height="200">
<path d="M0 0H200V200H0V0Z" fill="white"/>
</mask>
<g mask="url(#mask0_1264_90)">
<path d="M153.125 0H46.875C20.9867 0 0 20.9867 0 46.875V153.125C0 179.013 20.9867 200 46.875 200H153.125C179.013 200 200 179.013 200 153.125V46.875C200 20.9867 179.013 0 153.125 0Z" fill="#242938"/>
<path d="M99.6094 161.133C133.588 161.133 161.133 133.588 161.133 99.6094C161.133 65.6312 133.588 38.0859 99.6094 38.0859C65.6312 38.0859 38.0859 65.6312 38.0859 99.6094C38.0859 133.588 65.6312 161.133 99.6094 161.133Z" fill="#F47421"/>
<path d="M99.6093 129.448C116.089 129.448 129.448 116.089 129.448 99.6093C129.448 83.1296 116.089 69.7703 99.6093 69.7703C83.1296 69.7703 69.7703 83.1296 69.7703 99.6093C69.7703 116.089 83.1296 129.448 99.6093 129.448Z" stroke="white" stroke-width="8.55"/>
<path d="M57.7735 111.145C64.1446 111.145 69.3094 105.981 69.3094 99.6094C69.3094 93.2383 64.1446 88.0735 57.7735 88.0735C51.4024 88.0735 46.2375 93.2383 46.2375 99.6094C46.2375 105.981 51.4024 111.145 57.7735 111.145Z" fill="#F47421"/>
<path d="M122.852 99.6094H136.523" stroke="#F47421" stroke-width="3.238"/>
<path d="M57.7735 107.823C62.3094 107.823 65.9867 104.145 65.9867 99.6093C65.9867 95.0733 62.3094 91.396 57.7735 91.396C53.2375 91.396 49.5602 95.0733 49.5602 99.6093C49.5602 104.145 53.2375 107.823 57.7735 107.823Z" fill="white"/>
<path d="M110.537 57.6109C107.352 63.1281 109.242 70.1836 114.759 73.3687C120.277 76.5539 127.332 74.664 130.517 69.1461C133.703 63.6289 131.813 56.5734 126.295 53.3883C120.777 50.2023 113.723 52.0937 110.537 57.6109Z" fill="#F47421"/>
<path d="M87.9883 119.738L81.1523 131.578" stroke="#F47421" stroke-width="3.238"/>
<path d="M113.414 59.272C111.146 63.2001 112.492 68.2235 116.42 70.4915C120.348 72.7595 125.372 71.4134 127.64 67.4853C129.908 63.5571 128.562 58.5337 124.634 56.2657C120.705 53.9978 115.682 55.3439 113.414 59.272Z" fill="white"/>
<path d="M130.517 130.073C127.332 124.555 120.277 122.665 114.759 125.85C109.241 129.036 107.352 136.091 110.537 141.609C113.723 147.126 120.777 149.016 126.295 145.831C131.812 142.645 133.703 135.59 130.517 130.073Z" fill="#F47421"/>
<path d="M87.9883 79.4812L81.1523 67.6406" stroke="#F47421" stroke-width="3.238"/>
<path d="M127.64 131.734C125.372 127.806 120.349 126.459 116.42 128.727C112.492 130.995 111.146 136.019 113.414 139.947C115.682 143.876 120.705 145.221 124.634 142.953C128.562 140.685 129.908 135.663 127.64 131.734Z" fill="white"/>
</g>
</g>
<defs>
<clipPath id="clip0_1264_90">
<rect width="200" height="200" fill="white"/>
</clipPath>
</defs>
</svg>
