<svg width="200" height="151" viewBox="0 0 200 151" fill="none" xmlns="http://www.w3.org/2000/svg">
<g clip-path="url(#clip0_1264_146)">
<path d="M150.344 113.004H175.172V53.3898L147.199 25.418L129.643 42.9742L150.344 63.675V113.004ZM175.238 125.45H88.6344L67.9328 104.75L76.7117 95.9719L93.8094 113.07H128.988L94.3336 78.35L103.177 69.5063L137.831 104.161V68.9812L120.799 51.9492L129.512 43.2359L86.4727 0H0L24.7625 24.7625V24.8281H76.1219L94.268 42.9742L67.7367 69.5055L49.5906 51.3594V37.275H24.7625V61.6445L67.7367 104.619L50.2453 122.109L78.218 150.082H200L175.238 125.45Z" fill="#231F20"/>
</g>
<defs>
<clipPath id="clip0_1264_146">
<rect width="200" height="150.781" fill="white"/>
</clipPath>
</defs>
</svg>
