<svg width="183" height="90" viewBox="0 0 183 90" fill="none" xmlns="http://www.w3.org/2000/svg">
<path fill-rule="evenodd" clip-rule="evenodd" d="M51.375 64.217C51.375 74.436 45.08 89.918 25.156 89.886H0V0H25.687C44.902 0 51.364 15.46 51.37 25.685L51.375 64.217ZM26.582 16.819C28.686 16.819 30.795 17.607 32.898 19.182C34.996 20.757 36.054 23.126 36.058 26.277V64.114C36.0587 67.2687 35.0073 69.6337 32.904 71.209C30.8 72.784 28.691 73.572 26.587 73.572H17.127V16.819H26.582Z" fill="white"/>
<path d="M105.959 16.0531H77.073V36.9241H94.731V52.9881H77.073V73.8541H105.965V89.9181H72.253C66.203 90.0761 61.172 85.2841 61.02 79.2221V11.2561C60.874 5.19911 65.661 0.168113 71.706 0.0161133H105.965L105.959 16.0531ZM162.149 78.6841C154.992 95.3891 142.17 92.0641 136.429 78.6841L115.539 0.0221176H133.197L149.305 61.8001L165.336 0.0221176H183L162.149 78.6841Z" fill="white"/>
</svg>
