<svg width="91" height="91" viewBox="0 0 91 91" fill="none" xmlns="http://www.w3.org/2000/svg">
<path d="M45.504 0.578125C33.3042 0.578125 31.7728 0.631582 26.9814 0.849453C22.199 1.06867 18.9346 1.82561 16.0784 2.93652C13.1235 4.08383 10.6173 5.61881 8.12051 8.11646C5.6215 10.6137 4.08652 13.1199 2.93563 16.0735C1.82156 18.9305 1.06373 22.1963 0.848554 26.9765C0.634277 31.7683 0.578125 33.3001 0.578125 45.5005C0.578125 57.7008 0.632031 59.2272 0.849453 64.0186C1.06957 68.801 1.8265 72.0654 2.93652 74.9216C4.08473 77.8765 5.61971 80.3827 8.11736 82.8795C10.6137 85.3785 13.1199 86.9171 16.0726 88.0644C18.931 89.1753 22.1959 89.9322 26.9774 90.1514C31.7692 90.3693 33.2992 90.4228 45.4987 90.4228C57.6999 90.4228 59.2263 90.3693 64.0177 90.1514C68.8001 89.9322 72.0681 89.1753 74.9265 88.0644C77.8801 86.9171 80.3827 85.3785 82.8786 82.8795C85.3776 80.3827 86.9121 77.8765 88.0635 74.9229C89.1677 72.0654 89.9259 68.8001 90.1505 64.0195C90.3657 59.2281 90.4219 57.7008 90.4219 45.5005C90.4219 33.3001 90.3657 31.7692 90.1505 26.9774C89.9259 22.195 89.1677 18.931 88.0635 16.0748C86.9121 13.1199 85.3776 10.6137 82.8786 8.11646C80.38 5.61791 77.881 4.08293 74.9238 2.93697C72.0601 1.82561 68.7938 1.06822 64.0114 0.849453C59.2196 0.631582 57.694 0.578125 45.4901 0.578125H45.504ZM41.4741 8.6735C42.6704 8.6717 44.005 8.6735 45.504 8.6735C57.4986 8.6735 58.92 8.71662 63.6565 8.9318C68.0364 9.13215 70.4137 9.86393 71.9972 10.4789C74.0937 11.2929 75.5882 12.2663 77.1596 13.8391C78.7319 15.4113 79.7049 16.9086 80.5211 19.0051C81.1361 20.5863 81.8688 22.9636 82.0682 27.3435C82.2834 32.0791 82.3301 33.5014 82.3301 45.4901C82.3301 57.4789 82.2834 58.9015 82.0682 63.6367C81.8679 68.0166 81.1361 70.3939 80.5211 71.9756C79.7071 74.0721 78.7319 75.5649 77.1596 77.1362C75.5873 78.7085 74.0946 79.6815 71.9972 80.4959C70.4155 81.1136 68.0364 81.8436 63.6565 82.0439C58.9209 82.2591 57.4986 82.3058 45.504 82.3058C33.509 82.3058 32.0872 82.2591 27.352 82.0439C22.9721 81.8418 20.5949 81.11 19.01 80.495C16.914 79.6806 15.4163 78.7076 13.844 77.1353C12.2717 75.5631 11.2987 74.0694 10.4825 71.972C9.86752 70.3903 9.13484 68.013 8.93539 63.6332C8.72021 58.8975 8.67709 57.4753 8.67709 45.4789C8.67709 33.4829 8.72021 32.0679 8.93539 27.3322C9.13574 22.9524 9.86752 20.5751 10.4825 18.9916C11.2969 16.8951 12.2717 15.3979 13.8445 13.8256C15.4167 12.2533 16.914 11.2799 19.0105 10.4641C20.594 9.84641 22.9721 9.11642 27.352 8.91517C31.4961 8.72785 33.102 8.6717 41.4741 8.66226V8.6735ZM69.4833 16.1323C66.5073 16.1323 64.0927 18.5446 64.0927 21.5212C64.0927 24.4972 66.5073 26.9118 69.4833 26.9118C72.4594 26.9118 74.874 24.4972 74.874 21.5212C74.874 18.5451 72.4594 16.1305 69.4833 16.1305V16.1323ZM45.504 22.4308C32.7642 22.4308 22.4349 32.7602 22.4349 45.5005C22.4349 58.2407 32.7642 68.5651 45.504 68.5651C58.2443 68.5651 68.5701 58.2407 68.5701 45.5005C68.5701 32.7606 58.2434 22.4308 45.5031 22.4308H45.504ZM45.504 30.5262C53.7737 30.5262 60.4783 37.2299 60.4783 45.5005C60.4783 53.7701 53.7737 60.4747 45.504 60.4747C37.2339 60.4747 30.5302 53.7701 30.5302 45.5005C30.5302 37.2299 37.2339 30.5262 45.504 30.5262Z" fill="white"/>
</svg>
