<svg width="74" height="42" viewBox="0 0 74 42" fill="none" xmlns="http://www.w3.org/2000/svg">
<path d="M20.7055 0C32.1415 0 41.4111 9.33441 41.4111 20.8478C41.4111 32.3614 32.1406 41.695 20.7055 41.695C9.27104 41.695 0 32.3614 0 20.8478C0 9.3347 9.27017 0 20.7055 0ZM53.7713 1.22111C59.4892 1.22111 64.1244 10.0075 64.1244 20.8478H64.1252C64.1252 31.6855 59.49 40.4745 53.7725 40.4745C48.0544 40.4745 43.4194 31.6855 43.4194 20.8478C43.4194 10.0104 48.0538 1.22111 53.7716 1.22111H53.7713ZM69.7745 3.26557C71.7851 3.26557 73.4158 11.1374 73.4158 20.8481C73.4158 30.5556 71.7857 38.4306 69.7745 38.4306C67.7633 38.4306 66.1341 30.5579 66.1341 20.8481C66.1341 11.138 67.7642 3.26557 69.7745 3.26557Z" fill="white"/>
</svg>
